<?xml version="1.0" encoding="iso-8859-1"?>
<!-- Generator: Adobe Illustrator 19.0.0, SVG Export Plug-In . SVG Version: 6.00 Build 0)  -->
<svg xmlns="http://www.w3.org/2000/svg" xmlns:xlink="http://www.w3.org/1999/xlink" version="1.1" id="Layer_1" x="0px" y="0px" viewBox="0 0 512 512" style="enable-background:new 0 0 512 512;" xml:space="preserve">
<g>
	<g>
		<g>
			<path d="M512,144c0-64.031-40.417-120.302-102.979-143.344c-3.917-1.406-8.271-0.479-11.229,2.469     c-2.938,2.938-3.896,7.323-2.458,11.229c5.458,14.875,10,28.479,10,44.313c0,51.694-29.53,97.546-75.652,119.716     c-26.796-43.665-74.728-71.716-127.014-71.716c-76.865,0-140.452,58.292-148.182,133.988C22.674,253.068,0,283.852,0,320     c0,47.052,38.271,85.333,85.333,85.333h277.333c58.813,0,106.667-47.854,106.667-106.667c0-14.34-2.934-27.987-8.089-40.49     C493.492,228.849,512,187.814,512,144z M362.667,384H85.333c-35.292,0-64-28.708-64-64s28.708-64,64-64     C91.229,256,96,251.229,96,245.333c0-5.896-4.771-10.667-10.667-10.667c-3.02,0-5.879,0.585-8.819,0.892     C86.319,174.258,139.288,128,202.667,128c49.551,0,94.474,29.395,115.391,73.837c-5.147,2.374-10.152,5.087-14.911,8.288     c-4.875,3.292-6.188,9.917-2.896,14.813c3.313,4.885,9.938,6.167,14.813,2.896c14.083-9.49,30.563-14.5,47.604-14.5     c47.063,0,85.333,38.281,85.333,85.333C448,345.719,409.729,384,362.667,384z M362.667,192c-4.923,0-9.793,0.415-14.611,1.077     c48.283-27.182,78.611-77.866,78.611-134.41c0-10.094-1.458-19.313-3.708-28.135C464.729,54.125,490.667,96.615,490.667,144     c0,35.965-14.402,69.82-39.784,94.819C431.672,210.594,399.307,192,362.667,192z"/>
			<path d="M245.333,64c15.458,0,18.979,2.073,24.458,7.552c5.479,5.458,7.542,8.979,7.542,24.448     c0,5.896,4.771,10.667,10.667,10.667s10.667-4.771,10.667-10.667c0-15.469,2.063-18.99,7.542-24.448     c5.479-5.479,9-7.552,24.458-7.552c5.896,0,10.667-4.771,10.667-10.667c0-5.896-4.771-10.667-10.667-10.667     c-15.458,0-18.979-2.073-24.458-7.552c-5.479-5.458-7.542-8.979-7.542-24.448C298.667,4.771,293.896,0,288,0     s-10.667,4.771-10.667,10.667c0,15.469-2.063,18.99-7.542,24.448c-5.479,5.479-9,7.552-24.458,7.552     c-5.896,0-10.667,4.771-10.667,10.667C234.667,59.229,239.438,64,245.333,64z M284.875,50.219     c1.125-1.125,2.167-2.24,3.125-3.354c0.958,1.115,2,2.229,3.125,3.354c1.125,1.115,2.229,2.156,3.354,3.115     c-1.125,0.958-2.229,2-3.354,3.115c-1.125,1.125-2.167,2.24-3.125,3.354c-0.958-1.115-2-2.229-3.125-3.354     c-1.125-1.115-2.229-2.156-3.354-3.115C282.646,52.375,283.75,51.333,284.875,50.219z"/>
			<path d="M330.667,426.667c-5.896,0-10.667,4.771-10.667,10.667c0,5.896,4.771,10.667,10.667,10.667     c47.625,0,71.813,5.375,98.333,38.646c2.104,2.646,5.208,4.021,8.333,4.021c2.333,0,4.688-0.76,6.646-2.323     c4.604-3.667,5.375-10.385,1.688-14.99C414.063,433.656,383.396,426.667,330.667,426.667z"/>
			<path d="M352,469.333c-27.563,0-42.979,6.74-56.563,12.688c-11.042,4.833-19.771,8.646-34.104,8.646c-29.646,0-48-16.615-48-32     c0-13.177,8.313-21.333,16-21.333c10.792,0,19,7.427,19.292,7.708c4.229,4.052,10.938,3.927,15.042-0.281     c4.083-4.229,3.979-10.979-0.25-15.083C261.979,428.281,248.771,416,229.333,416C208.396,416,192,434.74,192,458.667     C192,484.885,217.938,512,261.333,512c18.813,0,30.917-5.302,42.646-10.438c12.813-5.604,24.917-10.896,48.021-10.896     c19.771,0,34.271,17.25,34.396,17.396c2.104,2.594,5.167,3.938,8.271,3.938c2.375,0,4.75-0.781,6.729-2.385     c4.563-3.719,5.271-10.438,1.542-15.01C402.104,493.573,382.063,469.333,352,469.333z"/>
			<path d="M160.708,426.688c-2.061-0.126-17.309-0.767-29.443,5.382c-14.04-8.059-33.109-6.357-44.828,5.389     C72.188,451.719,64,475,64,501.333c0,4.313,2.604,8.198,6.583,9.854c1.313,0.552,2.708,0.813,4.083,0.813     c2.771,0,5.5-1.083,7.542-3.125c4.854-4.844,16.063-6.688,25.958-8.313c11.938-1.958,23.188-3.813,30.375-10.99     c10.911-10.904,13.496-26.988,7.842-40.396c4.424-1,9.439-1.384,12.928-1.198c6.479,0.333,10.938-4.104,11.313-9.969     S166.583,427.083,160.708,426.688z M123.458,474.49c-2.333,2.323-11.813,3.885-18.75,5.021     c-5.75,0.948-11.854,1.948-17.708,3.604c3.5-18.146,11.583-27.635,14.521-30.573c2.917-2.927,6.813-4.542,10.958-4.542     c4.146,0,8.042,1.615,10.979,4.542c2.938,2.938,4.542,6.833,4.542,10.979C128,467.656,126.396,471.552,123.458,474.49z"/>
		</g>
	</g>
</g>
<g>
</g>
<g>
</g>
<g>
</g>
<g>
</g>
<g>
</g>
<g>
</g>
<g>
</g>
<g>
</g>
<g>
</g>
<g>
</g>
<g>
</g>
<g>
</g>
<g>
</g>
<g>
</g>
<g>
</g>
</svg>
