<?xml version="1.0" encoding="iso-8859-1"?>
<!-- Generator: Adobe Illustrator 19.0.0, SVG Export Plug-In . SVG Version: 6.00 Build 0)  -->
<svg xmlns="http://www.w3.org/2000/svg" xmlns:xlink="http://www.w3.org/1999/xlink" version="1.1" id="Layer_1" x="0px" y="0px" viewBox="0 0 512 512" style="enable-background:new 0 0 512 512;" xml:space="preserve">
<g>
	<g>
		<g>
			<path d="M192,437.333c0-5.896-4.771-10.667-10.667-10.667c-52.729,0-83.385,6.99-115.01,46.688     c-3.667,4.604-2.906,11.323,1.698,14.99c1.969,1.563,4.313,2.323,6.635,2.323c3.135,0,6.25-1.375,8.354-4.021     C109.51,453.375,133.698,448,181.333,448C187.229,448,192,443.229,192,437.333z"/>
			<path d="M282.667,416c-19.427,0-32.646,12.281-34.094,13.677c-4.198,4.073-4.302,10.75-0.26,14.99s10.781,4.385,15.052,0.385     c0.083-0.083,8.354-7.719,19.302-7.719c7.698,0,16,8.156,16,21.333c0,15.385-18.354,32-48,32     c-14.344,0-23.063-3.813-34.094-8.646c-13.594-5.948-29-12.688-56.573-12.688c-30.063,0-50.104,24.24-50.948,25.271     c-3.698,4.563-3.01,11.24,1.531,14.958c4.542,3.719,11.24,3.052,15-1.469c0.146-0.177,14.646-17.427,34.417-17.427     c23.104,0,35.208,5.292,48.021,10.896C219.74,506.698,231.865,512,250.667,512C294.063,512,320,484.885,320,458.667     C320,435.135,303.25,416,282.667,416z"/>
			<path d="M380.632,432.016c-12.137-6.104-27.299-5.43-29.34-5.328c-5.875,0.396-10.323,5.479-9.938,11.354     c0.396,5.875,5.448,10.104,11.354,9.938c3.094-0.228,8.293,0.125,12.926,1.185c-5.651,13.41-3.074,29.503,7.824,40.409     c7.177,7.177,18.448,9.031,30.365,10.99c9.906,1.625,21.125,3.469,25.969,8.313c2.042,2.042,4.771,3.125,7.542,3.125     c1.375,0,2.76-0.26,4.083-0.813c3.99-1.646,6.583-5.542,6.583-9.854c0-26.323-8.177-49.604-22.427-63.875     C413.385,425.289,394.785,423.551,380.632,432.016z M407.292,479.51c-6.927-1.135-16.417-2.698-18.75-5.021     c-6.042-6.052-6.042-15.896,0-21.948c6.031-6.031,15.875-6.052,21.948,0c2.927,2.938,11.01,12.427,14.51,30.573     C419.156,481.458,413.052,480.458,407.292,479.51z"/>
			<path d="M501.333,149.333h-32.54c-2.208-24.35-11.849-46.576-26.682-64.361l23.025-23.025c4.167-4.167,4.167-10.917,0-15.083     c-4.167-4.167-10.917-4.167-15.083,0l-23.025,23.025c-17.785-14.833-40.01-24.474-64.361-26.682v-32.54     C362.667,4.771,357.896,0,352,0c-5.896,0-10.667,4.771-10.667,10.667V43.52c-23.99,2.217-46.107,11.703-63.995,26.736     l-23.391-23.391c-4.167-4.167-10.917-4.167-15.083,0c-4.167,4.167-4.167,10.917,0,15.083l23.445,23.445     c-6.848,8.302-12.54,17.594-16.986,27.75c-13.656-4.128-27.97-6.477-42.658-6.477c-76.845,0-140.443,58.293-148.191,133.992     C22.674,253.076,0,283.857,0,320c0,47.052,38.281,85.333,85.333,85.333h277.333c58.813,0,106.667-47.854,106.667-106.667     c0-25.835-9.605-49.237-24.947-67.716c13.655-17.681,21.885-38.436,23.945-60.284h33.001c5.896,0,10.667-4.771,10.667-10.667     S507.229,149.333,501.333,149.333z M448,298.667C448,345.719,409.719,384,362.667,384H85.333c-35.292,0-64-28.708-64-64     s28.708-64,64-64C91.229,256,96,251.229,96,245.333c0-5.896-4.771-10.667-10.667-10.667c-3.016,0-5.87,0.583-8.806,0.891     C86.339,174.255,139.288,128,202.667,128c49.551,0,94.48,29.395,115.409,73.835c-5.151,2.376-10.16,5.092-14.919,8.301     c-4.885,3.292-6.177,9.917-2.885,14.802c3.292,4.896,9.948,6.177,14.802,2.885c14.073-9.479,30.531-14.49,47.594-14.49     C409.719,213.333,448,251.615,448,298.667z M429.122,215.905C410.832,201.185,387.914,192,362.667,192     c-8.276,0-16.366,1.224-24.288,3.073c-14.932-33.172-41.125-59.331-73.191-74.276C280.574,86.544,314.194,64,352,64     c52.938,0,96,43.063,96,96C448,180.092,441.134,199.473,429.122,215.905z"/>
		</g>
	</g>
</g>
<g>
</g>
<g>
</g>
<g>
</g>
<g>
</g>
<g>
</g>
<g>
</g>
<g>
</g>
<g>
</g>
<g>
</g>
<g>
</g>
<g>
</g>
<g>
</g>
<g>
</g>
<g>
</g>
<g>
</g>
</svg>
