<?xml version="1.0" encoding="iso-8859-1"?>
<!-- Generator: Adobe Illustrator 19.0.0, SVG Export Plug-In . SVG Version: 6.00 Build 0)  -->
<svg xmlns="http://www.w3.org/2000/svg" xmlns:xlink="http://www.w3.org/1999/xlink" version="1.1" id="Layer_1" x="0px" y="0px" viewBox="0 0 512 512" style="enable-background:new 0 0 512 512;" xml:space="preserve">
<g>
	<g>
		<g>
			<path d="M501.333,362.667c-29.635,0-50.052,1.37-65.783,3.4c6.923-18.254,10.751-37.258,11.832-56.733h53.951     c5.896,0,10.667-4.771,10.667-10.667c0-5.896-4.771-10.667-10.667-10.667H447.46c-2.484-44.888-20.374-85.634-48.572-117.129     l38.133-38.142c4.167-4.167,4.167-10.917,0-15.083c-4.167-4.167-10.917-4.167-15.083,0l-38.133,38.141     c-31.493-28.202-72.243-46.095-117.138-48.579V53.333c0-5.896-4.771-10.667-10.667-10.667s-10.667,4.771-10.667,10.667v53.874     c-44.895,2.484-85.645,20.378-117.138,48.579l-38.133-38.141c-4.167-4.167-10.917-4.167-15.083,0     c-4.167,4.167-4.167,10.917,0,15.083l38.133,38.142C84.914,202.366,67.025,243.112,64.54,288H10.667     C4.771,288,0,292.771,0,298.667c0,5.896,4.771,10.667,10.667,10.667h53.951c1.081,19.477,4.909,38.482,11.832,56.734     c-15.724-2.031-36.139-3.401-65.783-3.401C4.771,362.667,0,367.438,0,373.333C0,379.229,4.771,384,10.667,384     c57.354,0,77.5,5.031,98.854,10.354c21.646,5.396,44.021,10.979,104,10.979c5.896,0,10.667-4.771,10.667-10.667     S219.417,384,213.521,384c-57.354,0-77.5-5.031-98.854-10.354c-4.208-1.049-8.533-2.095-13.066-3.116     c-10.66-22.758-16.267-46.875-16.267-71.863C85.333,204.563,161.896,128,256,128s170.667,76.563,170.667,170.667     c0,24.99-5.608,49.107-16.268,71.858c-4.548,1.022-8.887,2.07-13.107,3.121C375.917,378.969,355.75,384,298.396,384     c-5.896,0-10.667,4.771-10.667,10.667s4.771,10.667,10.667,10.667c59.979,0,82.375-5.583,104.042-10.979     C423.792,389.031,443.979,384,501.333,384c5.896,0,10.667-4.771,10.667-10.667C512,367.438,507.229,362.667,501.333,362.667z"/>
			<path d="M298.667,362.667c2.729,0,5.458-1.042,7.542-3.125c4.167-4.167,4.167-10.917,0-15.083l-42.654-42.654     c-0.987-0.99-2.169-1.775-3.482-2.318c-2.607-1.078-5.539-1.078-8.146,0c-1.313,0.543-2.495,1.328-3.482,2.318l-42.654,42.654     c-4.167,4.167-4.167,10.917,0,15.083c4.167,4.167,10.917,4.167,15.083,0l24.458-24.458v123.583     c0,5.896,4.771,10.667,10.667,10.667s10.667-4.771,10.667-10.667V335.083l24.458,24.458     C293.208,361.625,295.938,362.667,298.667,362.667z"/>
		</g>
	</g>
</g>
<g>
</g>
<g>
</g>
<g>
</g>
<g>
</g>
<g>
</g>
<g>
</g>
<g>
</g>
<g>
</g>
<g>
</g>
<g>
</g>
<g>
</g>
<g>
</g>
<g>
</g>
<g>
</g>
<g>
</g>
</svg>
