<?xml version="1.0" encoding="iso-8859-1"?>
<!-- Generator: Adobe Illustrator 19.0.0, SVG Export Plug-In . SVG Version: 6.00 Build 0)  -->
<svg xmlns="http://www.w3.org/2000/svg" xmlns:xlink="http://www.w3.org/1999/xlink" version="1.1" id="Layer_1" x="0px" y="0px" viewBox="0 0 512 512" style="enable-background:new 0 0 512 512;" xml:space="preserve">
<g>
	<g>
		<path d="M501.333,245.333H447.46c-2.484-44.889-20.378-85.637-48.578-117.131l38.139-38.139c4.167-4.167,4.167-10.917,0-15.083    c-4.167-4.167-10.917-4.167-15.083,0l-38.139,38.139c-31.495-28.201-72.242-46.094-117.132-48.578V10.667    C266.667,4.771,261.896,0,256,0s-10.667,4.771-10.667,10.667V64.54c-44.889,2.484-85.637,20.378-117.131,48.578L90.063,74.979    c-4.167-4.167-10.917-4.167-15.083,0c-4.167,4.167-4.167,10.917,0,15.083l38.139,38.139    c-28.201,31.495-46.094,72.242-48.578,117.131H10.667C4.771,245.333,0,250.104,0,256s4.771,10.667,10.667,10.667H64.54    c2.484,44.889,20.378,85.637,48.578,117.132l-38.139,38.139c-4.167,4.167-4.167,10.917,0,15.083    c2.083,2.083,4.813,3.125,7.542,3.125c2.729,0,5.458-1.042,7.542-3.125l38.139-38.139c31.495,28.201,72.242,46.094,117.131,48.578    v53.874c0,5.896,4.771,10.667,10.667,10.667s10.667-4.771,10.667-10.667V447.46c44.889-2.484,85.637-20.378,117.132-48.578    l38.139,38.139c2.083,2.083,4.813,3.125,7.542,3.125s5.458-1.042,7.542-3.125c4.167-4.167,4.167-10.917,0-15.083l-38.139-38.139    c28.201-31.495,46.094-72.242,48.578-117.132h53.874c5.896,0,10.667-4.771,10.667-10.667S507.229,245.333,501.333,245.333z     M256,426.667c-94.104,0-170.667-76.563-170.667-170.667S161.896,85.333,256,85.333S426.667,161.896,426.667,256    S350.104,426.667,256,426.667z"/>
	</g>
</g>
<g>
</g>
<g>
</g>
<g>
</g>
<g>
</g>
<g>
</g>
<g>
</g>
<g>
</g>
<g>
</g>
<g>
</g>
<g>
</g>
<g>
</g>
<g>
</g>
<g>
</g>
<g>
</g>
<g>
</g>
</svg>
