<?xml version="1.0" encoding="iso-8859-1"?>
<!-- Generator: Adobe Illustrator 19.0.0, SVG Export Plug-In . SVG Version: 6.00 Build 0)  -->
<svg xmlns="http://www.w3.org/2000/svg" xmlns:xlink="http://www.w3.org/1999/xlink" version="1.1" id="Layer_1" x="0px" y="0px" viewBox="0 0 512 512" style="enable-background:new 0 0 512 512;" xml:space="preserve">
<g>
	<g>
		<g>
			<path d="M501.333,149.333h-32.54c-2.208-24.35-11.849-46.576-26.682-64.361l23.025-23.025c4.167-4.167,4.167-10.917,0-15.083     c-4.167-4.167-10.917-4.167-15.083,0l-23.025,23.025c-17.785-14.833-40.01-24.474-64.361-26.682v-32.54     C362.667,4.771,357.896,0,352,0c-5.896,0-10.667,4.771-10.667,10.667V43.52c-23.99,2.217-46.107,11.703-63.995,26.736     l-23.391-23.391c-4.167-4.167-10.917-4.167-15.083,0c-4.167,4.167-4.167,10.917,0,15.083l23.445,23.445     c-6.848,8.302-12.54,17.594-16.986,27.75c-13.656-4.128-27.97-6.477-42.658-6.477c-76.845,0-140.443,58.293-148.191,133.992     C22.674,253.076,0,283.857,0,320c0,47.052,38.281,85.333,85.333,85.333h21.841l-8.143,6.229     c-8.708,6.188-13.698,15.573-13.698,25.771c0,17.646,14.354,32,32,32c17.646,0,32-14.354,32-32v-32h29.656l-18.781,93.906     c-1,5,1.667,10,6.375,11.948c1.333,0.552,2.708,0.813,4.083,0.813c3.479,0,6.844-1.708,8.875-4.75l58.781-88.167l34.24,17.125     c2.813,1.417,6.094,1.521,8.969,0.26c2.885-1.229,5.073-3.667,6-6.667l7.529-24.469h67.607     c58.813,0,106.667-47.854,106.667-106.667c0-25.835-9.605-49.237-24.947-67.716c13.655-17.681,21.885-38.436,23.945-60.284     h33.001c5.896,0,10.667-4.771,10.667-10.667S507.229,149.333,501.333,149.333z M128,437.333c0,5.885-4.781,10.667-10.667,10.667     c-5.885,0-10.667-4.781-10.667-10.667c0-4.417,3.01-7.188,4.802-8.448c0.125-0.083,0.24-0.167,0.354-0.26L128,416.26V437.333z      M270.844,411.5l-31.406-15.708c-4.813-2.417-10.656-0.844-13.646,3.625l-34.094,51.135l18.688-93.438l30.177,15.094     c3.125,1.563,6.802,1.479,9.865-0.167c3.063-1.667,5.125-4.729,5.51-8.198l9.208-82.885l41.594,13.865L270.844,411.5z      M448,298.667C448,345.719,409.719,384,362.667,384h-61.043l28.574-92.865c1.698-5.542-1.323-11.427-6.823-13.25l-64-21.333     c-3.063-1.052-6.406-0.615-9.125,1.125c-2.708,1.74-4.5,4.615-4.854,7.813l-8.979,80.792l-28.979-14.49     c-2.969-1.479-6.469-1.5-9.458-0.042c-2.99,1.458-5.125,4.229-5.771,7.49L183.257,384H85.333c-35.292,0-64-28.708-64-64     s28.708-64,64-64C91.229,256,96,251.229,96,245.333c0-5.896-4.771-10.667-10.667-10.667c-3.016,0-5.87,0.583-8.806,0.891     C86.339,174.255,139.288,128,202.667,128c49.551,0,94.48,29.395,115.409,73.835c-5.151,2.376-10.16,5.092-14.919,8.301     c-4.885,3.292-6.177,9.917-2.885,14.802c3.292,4.896,9.927,6.177,14.802,2.885c14.073-9.479,30.531-14.49,47.594-14.49     C409.719,213.333,448,251.615,448,298.667z M429.122,215.905C410.832,201.185,387.914,192,362.667,192     c-8.276,0-16.366,1.224-24.288,3.073c-14.932-33.172-41.125-59.331-73.191-74.276C280.574,86.544,314.194,64,352,64     c52.938,0,96,43.063,96,96C448,180.092,441.134,199.473,429.122,215.905z"/>
			<path d="M58.063,427.771c-3.635-1.781-7.99-1.365-11.208,1.094l-33.156,25.365C4.99,460.417,0,469.802,0,480     c0,17.646,14.354,32,32,32s32-14.354,32-32v-42.667C64,433.271,61.698,429.573,58.063,427.771z M42.667,480     c0,5.885-4.781,10.667-10.667,10.667S21.333,485.885,21.333,480c0-4.417,3.01-7.188,4.802-8.448     c0.125-0.083,0.24-0.167,0.354-0.26l16.177-12.365V480z"/>
			<path d="M335.396,427.771c-3.615-1.781-7.969-1.365-11.208,1.094l-33.156,25.375c-8.708,6.177-13.698,15.552-13.698,25.76     c0,17.646,14.354,32,32,32c17.646,0,32-14.354,32-32v-42.667C341.333,433.271,339.031,429.563,335.396,427.771z M320,480     c0,5.885-4.781,10.667-10.667,10.667c-5.885,0-10.667-4.781-10.667-10.667c0-4.417,3-7.177,4.792-8.427     c0.125-0.083,0.25-0.177,0.365-0.271L320,458.927V480z"/>
		</g>
	</g>
</g>
<g>
</g>
<g>
</g>
<g>
</g>
<g>
</g>
<g>
</g>
<g>
</g>
<g>
</g>
<g>
</g>
<g>
</g>
<g>
</g>
<g>
</g>
<g>
</g>
<g>
</g>
<g>
</g>
<g>
</g>
</svg>
