<?xml version="1.0" encoding="iso-8859-1"?>
<!-- Generator: Adobe Illustrator 19.0.0, SVG Export Plug-In . SVG Version: 6.00 Build 0)  -->
<svg xmlns="http://www.w3.org/2000/svg" xmlns:xlink="http://www.w3.org/1999/xlink" version="1.1" id="Layer_1" x="0px" y="0px" viewBox="0 0 512 512" style="enable-background:new 0 0 512 512;" xml:space="preserve">
<g>
	<g>
		<g>
			<path d="M512,144c0-64.031-40.417-120.302-102.979-143.344c-3.917-1.406-8.271-0.479-11.229,2.469     c-2.938,2.938-3.896,7.323-2.458,11.229c5.458,14.875,10,28.479,10,44.313c0,51.694-29.53,97.546-75.652,119.716     c-26.796-43.665-74.728-71.716-127.014-71.716c-76.865,0-140.452,58.292-148.182,133.988C22.674,253.068,0,283.852,0,320     c0,47.052,38.271,85.333,85.333,85.333h21.816L99,411.563c-8.688,6.198-13.667,15.573-13.667,25.771c0,17.646,14.354,32,32,32     c17.646,0,32-14.354,32-32v-32h29.656l-18.781,93.906c-1,5,1.667,10,6.375,11.948c1.333,0.552,2.708,0.813,4.083,0.813     c3.479,0,6.854-1.708,8.875-4.75l58.771-88.167l34.25,17.125c2.792,1.385,6.083,1.521,8.958,0.26     c2.896-1.229,5.083-3.667,6-6.667l7.529-24.469h67.617c58.813,0,106.667-47.854,106.667-106.667     c0-14.34-2.934-27.987-8.089-40.49C493.492,228.849,512,187.814,512,144z M128,437.333c0,5.885-4.792,10.667-10.667,10.667     s-10.667-4.781-10.667-10.667c0-4.417,3-7.188,4.792-8.448c0.125-0.083,0.25-0.167,0.354-0.26L128,416.25V437.333z      M270.833,411.5l-31.396-15.708c-4.771-2.385-10.646-0.865-13.646,3.625l-34.083,51.135l18.688-93.438l30.167,15.094     c3.125,1.563,6.792,1.469,9.875-0.167c3.063-1.667,5.104-4.729,5.5-8.198l9.208-82.885l41.604,13.865L270.833,411.5z      M362.667,384h-61.053l28.574-92.865c1.708-5.542-1.313-11.427-6.813-13.25l-64-21.333c-3.083-1.052-6.438-0.583-9.125,1.125     c-2.708,1.74-4.5,4.615-4.854,7.813l-8.979,80.792l-28.979-14.49c-2.979-1.49-6.479-1.49-9.458-0.042     c-2.979,1.458-5.125,4.229-5.771,7.49L183.257,384H85.333c-35.292,0-64-28.708-64-64s28.708-64,64-64     C91.229,256,96,251.229,96,245.333c0-5.896-4.771-10.667-10.667-10.667c-3.02,0-5.879,0.585-8.819,0.892     C86.319,174.258,139.288,128,202.667,128c49.551,0,94.474,29.395,115.391,73.837c-5.147,2.374-10.152,5.087-14.911,8.288     c-4.875,3.292-6.188,9.917-2.896,14.813c3.313,4.885,9.958,6.167,14.813,2.896c14.083-9.49,30.563-14.5,47.604-14.5     c47.063,0,85.333,38.281,85.333,85.333C448,345.719,409.729,384,362.667,384z M362.667,192c-4.923,0-9.793,0.415-14.611,1.077     c48.283-27.182,78.611-77.866,78.611-134.41c0-10.094-1.458-19.313-3.708-28.135C464.729,54.125,490.667,96.615,490.667,144     c0,35.965-14.402,69.82-39.784,94.819C431.672,210.594,399.307,192,362.667,192z"/>
			<path d="M245.333,64c15.458,0,18.979,2.073,24.458,7.552c5.479,5.458,7.542,8.979,7.542,24.448     c0,5.896,4.771,10.667,10.667,10.667s10.667-4.771,10.667-10.667c0-15.469,2.063-18.99,7.542-24.448     c5.479-5.479,9-7.552,24.458-7.552c5.896,0,10.667-4.771,10.667-10.667c0-5.896-4.771-10.667-10.667-10.667     c-15.458,0-18.979-2.073-24.458-7.552c-5.479-5.458-7.542-8.979-7.542-24.448C298.667,4.771,293.896,0,288,0     s-10.667,4.771-10.667,10.667c0,15.469-2.063,18.99-7.542,24.448c-5.479,5.479-9,7.552-24.458,7.552     c-5.896,0-10.667,4.771-10.667,10.667C234.667,59.229,239.438,64,245.333,64z M284.875,50.219     c1.125-1.125,2.167-2.24,3.125-3.354c0.958,1.115,2,2.229,3.125,3.354c1.125,1.115,2.229,2.156,3.354,3.115     c-1.125,0.958-2.229,2-3.354,3.115c-1.125,1.125-2.167,2.24-3.125,3.354c-0.958-1.115-2-2.229-3.125-3.354     c-1.125-1.115-2.229-2.156-3.354-3.115C282.646,52.375,283.75,51.333,284.875,50.219z"/>
			<path d="M58.063,427.771c-3.646-1.792-8-1.406-11.208,1.094l-33.188,25.365C4.979,460.427,0,469.802,0,480     c0,17.646,14.354,32,32,32s32-14.354,32-32v-42.667C64,433.271,61.688,429.573,58.063,427.771z M42.667,480     c0,5.885-4.792,10.667-10.667,10.667S21.333,485.885,21.333,480c0-4.417,3-7.188,4.792-8.448c0.125-0.083,0.25-0.167,0.354-0.26     l16.188-12.375V480z"/>
			<path d="M335.396,427.771c-3.667-1.792-8-1.406-11.208,1.094l-33.167,25.375c-8.708,6.177-13.688,15.552-13.688,25.76     c0,17.646,14.354,32,32,32c17.646,0,32-14.354,32-32v-42.667C341.333,433.271,339.021,429.573,335.396,427.771z M320,480     c0,5.885-4.792,10.667-10.667,10.667s-10.667-4.781-10.667-10.667c0-4.417,3-7.177,4.792-8.427     c0.125-0.094,0.229-0.177,0.354-0.271L320,458.927V480z"/>
		</g>
	</g>
</g>
<g>
</g>
<g>
</g>
<g>
</g>
<g>
</g>
<g>
</g>
<g>
</g>
<g>
</g>
<g>
</g>
<g>
</g>
<g>
</g>
<g>
</g>
<g>
</g>
<g>
</g>
<g>
</g>
<g>
</g>
</svg>
