<?xml version="1.0" encoding="iso-8859-1"?>
<!-- Generator: Adobe Illustrator 19.0.0, SVG Export Plug-In . SVG Version: 6.00 Build 0)  -->
<svg xmlns="http://www.w3.org/2000/svg" xmlns:xlink="http://www.w3.org/1999/xlink" version="1.1" id="Layer_1" x="0px" y="0px" viewBox="0 0 512 512" style="enable-background:new 0 0 512 512;" xml:space="preserve">
<g>
	<g>
		<g>
			<path d="M55.229,431.271C48.25,441.385,32,466.365,32,480c0,17.646,14.354,32,32,32s32-14.354,32-32     c0-13.635-16.25-38.615-23.229-48.729C68.813,425.5,59.188,425.5,55.229,431.271z M64,490.667     c-5.875,0-10.667-4.781-10.667-10.656c0.083-3.26,4.521-12.552,10.667-22.906c6.146,10.333,10.563,19.625,10.667,22.896     C74.667,485.885,69.875,490.667,64,490.667z"/>
			<path d="M512,192c0-58.813-47.854-106.667-106.667-106.667c-8.275,0-16.366,1.224-24.289,3.074     C357.124,35.29,303.995,0,245.333,0C168.098,0,104.276,58.389,97.044,134.022c-31.755,12.44-54.378,43.202-54.378,79.311     c0,4.918,0.717,9.997,1.783,15.283C17.802,245.694,0,275.4,0,309.333c0,52.938,43.063,96,96,96h74.667v24.189l-30.188-17.428     c-5.083-2.927-11.625-1.208-14.563,3.906c-2.958,5.104-1.208,11.625,3.896,14.573L159.997,448l-30.185,17.427     c-5.104,2.948-6.854,9.469-3.896,14.573c1.958,3.427,5.563,5.333,9.229,5.333c1.813,0,3.646-0.458,5.333-1.427l30.188-17.428     v34.855c0,5.896,4.771,10.667,10.667,10.667c5.896,0,10.667-4.771,10.667-10.667v-34.855l30.188,17.428     c1.688,0.969,3.521,1.427,5.333,1.427c3.667,0,7.271-1.906,9.229-5.333c2.958-5.104,1.208-11.625-3.896-14.573L202.669,448     l30.185-17.427c5.104-2.948,6.854-9.469,3.896-14.573c-2.938-5.125-9.479-6.833-14.563-3.906L192,429.522v-24.189h110.129     c-10.167,19.436-24.796,49.842-24.796,64C277.333,492.865,296.479,512,320,512c23.521,0,42.667-19.135,42.667-42.667     c0-14.318-14.978-45.293-25.152-64.693c37.919-3.521,67.819-35.152,67.819-73.974c0-11.495-2.828-22.263-7.49-32h7.49     C464.146,298.667,512,250.813,512,192z M341.333,469.333c0,11.76-9.563,21.333-21.333,21.333s-21.333-9.573-21.333-21.333     c0-7.25,9.917-29.979,21.333-52.135C331.417,439.354,341.333,462.083,341.333,469.333z M330.667,384H96     c-41.167,0-74.667-33.5-74.667-74.667c0-41.167,33.5-74.667,74.667-74.667c17.146,0,33.292,5.656,46.646,16.354     c4.563,3.698,11.292,2.979,15-1.656c3.667-4.594,2.938-11.313-1.667-14.99c-4.384-3.513-9.078-6.576-13.978-9.247     c18.785-33.302,53.978-54.461,92.665-54.461c51.465,0,94.466,36.908,104.111,86.154c-2.699-0.297-5.333-0.82-8.111-0.82     c-5.896,0-10.667,4.771-10.667,10.667c0,5.896,4.771,10.667,10.667,10.667c29.417,0,53.333,23.927,53.333,53.333     S360.083,384,330.667,384z M382.757,277.333c-6.13-5.988-13.323-10.841-21.21-14.452     c-7.229-64.189-61.578-113.548-126.88-113.548c-47.431,0-90.457,26.488-112.605,67.944c-8.462-2.397-17.181-3.944-26.061-3.944     c-11.1,0-21.599,2.268-31.525,5.749c-0.217-1.941-0.475-3.898-0.475-5.749c0-35.292,28.708-64,64-64     c5.896,0,10.667-4.771,10.667-10.667c0-5.896-4.771-10.667-10.667-10.667c-3.087,0-6.012,0.59-9.016,0.911     c9.375-61.255,62.595-107.578,126.349-107.578c49.551,0,94.474,29.395,115.391,73.837c-5.147,2.374-10.152,5.087-14.911,8.288     c-4.875,3.292-6.188,9.917-2.896,14.813c3.313,4.906,9.958,6.156,14.813,2.896c14.083-9.49,30.563-14.5,47.604-14.5     c47.063,0,85.333,38.281,85.333,85.333s-38.271,85.333-85.333,85.333H382.757z"/>
			<path d="M495.604,405.333c-2.938-5.125-9.479-6.844-14.563-3.906l-11.708,6.76v-13.521c0-5.896-4.771-10.667-10.667-10.667     S448,388.771,448,394.667v13.521l-11.708-6.76c-5.083-2.906-11.625-1.198-14.563,3.906c-2.958,5.104-1.208,11.625,3.896,14.573     l11.707,6.76l-11.707,6.76c-5.104,2.948-6.854,9.469-3.896,14.573c1.958,3.427,5.563,5.333,9.229,5.333     c1.813,0,3.646-0.458,5.333-1.427l11.708-6.76v13.521c0,5.896,4.771,10.667,10.667,10.667s10.667-4.771,10.667-10.667v-13.521     l11.708,6.76c1.688,0.969,3.521,1.427,5.333,1.427c3.667,0,7.271-1.906,9.229-5.333c2.958-5.104,1.208-11.625-3.896-14.573     l-11.707-6.76l11.707-6.76C496.813,416.958,498.563,410.438,495.604,405.333z"/>
		</g>
	</g>
</g>
<g>
</g>
<g>
</g>
<g>
</g>
<g>
</g>
<g>
</g>
<g>
</g>
<g>
</g>
<g>
</g>
<g>
</g>
<g>
</g>
<g>
</g>
<g>
</g>
<g>
</g>
<g>
</g>
<g>
</g>
</svg>
