<?xml version="1.0" encoding="iso-8859-1"?>
<!-- Generator: Adobe Illustrator 19.0.0, SVG Export Plug-In . SVG Version: 6.00 Build 0)  -->
<svg xmlns="http://www.w3.org/2000/svg" xmlns:xlink="http://www.w3.org/1999/xlink" version="1.1" id="Layer_1" x="0px" y="0px" viewBox="0 0 512 512" style="enable-background:new 0 0 512 512;" xml:space="preserve">
<g>
	<g>
		<g>
			<path d="M501.333,149.333h-32.54c-2.208-24.352-11.85-46.577-26.686-64.362l23.039-23.023c4.167-4.156,4.167-10.917,0-15.083     c-4.167-4.167-10.917-4.167-15.083,0l-23.04,23.025c-17.786-14.833-40.008-24.474-64.355-26.682v-32.54     C362.667,4.771,357.896,0,352,0c-5.896,0-10.667,4.771-10.667,10.667V43.52c-23.988,2.217-46.103,11.703-63.992,26.733     l-23.404-23.388c-4.167-4.167-10.917-4.167-15.083,0c-4.167,4.167-4.167,10.927,0,15.083l23.457,23.441     c-6.85,8.303-12.546,17.594-16.995,27.753c-13.655-4.128-27.966-6.475-42.65-6.475c-76.865,0-140.452,58.292-148.182,133.988     C22.674,253.068,0,283.852,0,320c0,47.052,38.271,85.333,85.333,85.333h128v24.189l-30.188-17.428     c-5.063-2.906-11.625-1.208-14.563,3.906c-2.958,5.104-1.208,11.625,3.896,14.573L202.664,448l-30.185,17.427     c-5.104,2.948-6.854,9.469-3.896,14.573c1.958,3.427,5.563,5.333,9.229,5.333c1.813,0,3.646-0.458,5.333-1.427l30.188-17.428     v34.855c0,5.896,4.771,10.667,10.667,10.667s10.667-4.771,10.667-10.667v-34.855l30.188,17.428     c1.688,0.969,3.521,1.427,5.333,1.427c3.667,0,7.271-1.906,9.229-5.333c2.958-5.104,1.208-11.625-3.896-14.573L245.336,448     l30.185-17.427c5.104-2.948,6.854-9.469,3.896-14.573c-2.938-5.125-9.479-6.844-14.563-3.906l-30.188,17.428v-24.189h128     c58.813,0,106.667-47.854,106.667-106.667c0-25.836-9.604-49.24-24.947-67.717c13.659-17.685,21.885-38.434,23.945-60.283h33.001     c5.896,0,10.667-4.771,10.667-10.667S507.229,149.333,501.333,149.333z M448,298.667C448,345.719,409.729,384,362.667,384H85.333     c-35.292,0-64-28.708-64-64s28.708-64,64-64C91.229,256,96,251.229,96,245.333c0-5.896-4.771-10.667-10.667-10.667     c-3.02,0-5.879,0.585-8.819,0.892C86.319,174.258,139.288,128,202.667,128c49.551,0,94.474,29.395,115.391,73.837     c-5.147,2.374-10.152,5.087-14.911,8.288c-4.875,3.292-6.188,9.917-2.896,14.813c3.313,4.896,9.938,6.167,14.813,2.896     c14.083-9.49,30.563-14.5,47.604-14.5C409.729,213.333,448,251.615,448,298.667z M429.116,215.9     c-18.289-14.716-41.204-23.9-66.449-23.9c-8.275,0-16.366,1.224-24.289,3.074c-14.939-33.172-41.133-59.332-73.198-74.279     C280.576,86.543,314.185,64,352,64c52.938,0,96,43.063,96,96C448,180.092,441.141,199.474,429.116,215.9z"/>
			<path d="M132.938,448c-2.917-5.125-9.458-6.844-14.563-3.906l-11.708,6.76v-13.521c0-5.896-4.771-10.667-10.667-10.667     s-10.667,4.771-10.667,10.667v13.521l-11.708-6.76C68.563,441.188,62,442.896,59.063,448c-2.958,5.104-1.208,11.625,3.896,14.573     l11.707,6.76l-11.707,6.76c-5.104,2.948-6.854,9.469-3.896,14.573c1.958,3.427,5.563,5.333,9.229,5.333     c1.813,0,3.646-0.458,5.333-1.427l11.708-6.76v13.521C85.333,507.229,90.104,512,96,512s10.667-4.771,10.667-10.667v-13.521     l11.708,6.76c1.688,0.969,3.521,1.427,5.333,1.427c3.667,0,7.271-1.906,9.229-5.333c2.958-5.104,1.208-11.625-3.896-14.573     l-11.707-6.76l11.707-6.76C134.146,459.625,135.896,453.104,132.938,448z"/>
			<path d="M410.271,448c-2.938-5.125-9.479-6.844-14.563-3.906L384,450.854v-13.521c0-5.896-4.771-10.667-10.667-10.667     c-5.896,0-10.667,4.771-10.667,10.667v13.521l-11.708-6.76c-5.083-2.906-11.625-1.198-14.563,3.906     c-2.958,5.104-1.208,11.625,3.896,14.573l11.707,6.76l-11.707,6.76c-5.104,2.948-6.854,9.469-3.896,14.573     c1.958,3.427,5.563,5.333,9.229,5.333c1.813,0,3.646-0.458,5.333-1.427l11.708-6.76v13.521c0,5.896,4.771,10.667,10.667,10.667     c5.896,0,10.667-4.771,10.667-10.667v-13.521l11.708,6.76c1.688,0.969,3.521,1.427,5.333,1.427c3.667,0,7.271-1.906,9.229-5.333     c2.958-5.104,1.208-11.625-3.896-14.573l-11.707-6.76l11.707-6.76C411.479,459.625,413.229,453.104,410.271,448z"/>
		</g>
	</g>
</g>
<g>
</g>
<g>
</g>
<g>
</g>
<g>
</g>
<g>
</g>
<g>
</g>
<g>
</g>
<g>
</g>
<g>
</g>
<g>
</g>
<g>
</g>
<g>
</g>
<g>
</g>
<g>
</g>
<g>
</g>
</svg>
