<?xml version="1.0" encoding="iso-8859-1"?>
<!-- Generator: Adobe Illustrator 19.0.0, SVG Export Plug-In . SVG Version: 6.00 Build 0)  -->
<svg xmlns="http://www.w3.org/2000/svg" xmlns:xlink="http://www.w3.org/1999/xlink" version="1.1" id="Layer_1" x="0px" y="0px" viewBox="0 0 512.009 512.009" style="enable-background:new 0 0 512.009 512.009;" xml:space="preserve">
<g>
	<g>
		<g>
			<path d="M129.89,431.28c-6.979,10.115-23.219,35.094-23.219,48.729c0,17.646,14.354,32,32,32c17.646,0,32-14.354,32-32     c0-13.635-16.24-38.615-23.219-48.729C143.452,425.509,133.89,425.509,129.89,431.28z M138.671,490.675     c-5.885,0-10.667-4.781-10.667-10.656c0.083-3.26,4.521-12.552,10.667-22.906c6.135,10.333,10.573,19.625,10.667,22.896     C149.338,485.894,144.546,490.675,138.671,490.675z"/>
			<path d="M512.004,144.009c0-64.042-40.427-120.302-102.979-143.344c-3.906-1.448-8.302-0.49-11.229,2.469     c-2.938,2.938-3.906,7.323-2.469,11.229c5.479,14.875,10.01,28.479,10.01,44.313c0,51.691-29.538,97.544-75.65,119.714     c-26.79-43.665-74.723-71.714-127.017-71.714c-76.845,0-140.443,58.293-148.191,133.992     c-31.801,12.417-54.475,43.198-54.475,79.341c0,47.052,38.281,85.333,85.333,85.333h131.458     c-10.161,19.436-24.792,49.842-24.792,64c0,23.531,19.135,42.667,42.667,42.667s42.667-19.135,42.667-42.667     c0-14.158-14.63-44.564-24.792-64h58.671c-6.37,10.888-12.546,23.594-12.546,32c0,17.646,14.354,32,32,32     c17.646,0,32-14.354,32-32c0-8.406-6.176-21.112-12.546-32h12.546c58.813,0,106.667-47.854,106.667-106.667     c0-14.34-2.934-27.987-8.089-40.49C493.497,228.858,512.004,187.823,512.004,144.009z M256.004,469.342     c0,11.76-9.573,21.333-21.333,21.333c-11.76,0-21.333-9.573-21.333-21.333c0-7.25,9.906-29.979,21.333-52.135     C246.098,439.363,256.004,462.092,256.004,469.342z M330.671,448.009c-5.885,0-10.667-4.781-10.667-10.656     c0.083-3.26,4.521-12.552,10.667-22.906c6.135,10.333,10.573,19.625,10.667,22.896     C341.338,443.227,336.546,448.009,330.671,448.009z M362.671,384.009H85.338c-35.292,0-64-28.708-64-64c0-35.292,28.708-64,64-64     c5.896,0,10.667-4.771,10.667-10.667c0-5.896-4.771-10.667-10.667-10.667c-3.016,0-5.87,0.583-8.806,0.891     c9.811-61.302,62.76-107.557,126.139-107.557c49.551,0,94.48,29.395,115.409,73.835c-5.151,2.376-10.16,5.092-14.919,8.301     c-4.885,3.292-6.177,9.917-2.885,14.802c3.292,4.896,9.948,6.167,14.802,2.885c14.073-9.479,30.531-14.49,47.594-14.49     c47.052,0,85.333,38.281,85.333,85.333C448.004,345.727,409.723,384.009,362.671,384.009z M362.671,192.009     c-4.926,0-9.799,0.415-14.618,1.077c48.286-27.189,78.618-77.872,78.618-134.41c0-10.094-1.458-19.323-3.708-28.146     c41.771,23.594,67.708,66.094,67.708,113.479c0,35.964-14.41,69.819-39.785,94.818     C431.674,210.602,399.31,192.009,362.671,192.009z"/>
			<path d="M245.338,64.009c15.458,0,18.979,2.073,24.458,7.542c5.469,5.479,7.542,9,7.542,24.458     c0,5.896,4.771,10.667,10.667,10.667s10.667-4.771,10.667-10.667c0-15.458,2.073-18.979,7.542-24.458     c5.479-5.469,9-7.542,24.458-7.542c5.896,0,10.667-4.771,10.667-10.667c0-5.896-4.771-10.667-10.667-10.667     c-15.458,0-18.979-2.073-24.458-7.542c-5.469-5.479-7.542-9-7.542-24.458c0-5.896-4.771-10.667-10.667-10.667     s-10.667,4.771-10.667,10.667c0,15.458-2.073,18.979-7.542,24.458c-5.479,5.469-9,7.542-24.458,7.542     c-5.896,0-10.667,4.771-10.667,10.667C234.671,59.238,239.442,64.009,245.338,64.009z M284.879,50.217     c1.125-1.125,2.167-2.229,3.125-3.344c0.958,1.115,2,2.219,3.125,3.344s2.229,2.167,3.344,3.125     c-1.115,0.958-2.219,2-3.344,3.125s-2.167,2.229-3.125,3.344c-0.958-1.115-2-2.219-3.125-3.344s-2.229-2.167-3.344-3.125     C282.65,52.384,283.754,51.342,284.879,50.217z"/>
		</g>
	</g>
</g>
<g>
</g>
<g>
</g>
<g>
</g>
<g>
</g>
<g>
</g>
<g>
</g>
<g>
</g>
<g>
</g>
<g>
</g>
<g>
</g>
<g>
</g>
<g>
</g>
<g>
</g>
<g>
</g>
<g>
</g>
</svg>
