<?xml version="1.0" encoding="iso-8859-1"?>
<!-- Generator: Adobe Illustrator 19.0.0, SVG Export Plug-In . SVG Version: 6.00 Build 0)  -->
<svg xmlns="http://www.w3.org/2000/svg" xmlns:xlink="http://www.w3.org/1999/xlink" version="1.1" id="Layer_1" x="0px" y="0px" viewBox="0 0 512 512" style="enable-background:new 0 0 512 512;" xml:space="preserve">
<g>
	<g>
		<g>
			<path d="M501.333,149.333h-32.54c-2.208-24.352-11.85-46.577-26.686-64.362l23.039-23.023c4.167-4.156,4.167-10.917,0-15.083     c-4.167-4.167-10.917-4.167-15.083,0l-23.04,23.025c-17.786-14.833-40.008-24.474-64.355-26.682v-32.54     C362.667,4.771,357.896,0,352,0c-5.896,0-10.667,4.771-10.667,10.667V43.52c-23.988,2.217-46.103,11.703-63.992,26.733     l-23.404-23.388c-4.167-4.167-10.917-4.167-15.083,0c-4.167,4.167-4.167,10.927,0,15.083l23.457,23.441     c-6.85,8.303-12.546,17.594-16.995,27.753c-13.655-4.128-27.966-6.475-42.65-6.475c-76.865,0-140.452,58.292-148.182,133.988     C22.674,253.068,0,283.852,0,320c0,47.052,38.271,85.333,85.333,85.333h131.462c-10.167,19.436-24.796,49.842-24.796,64     C192,492.865,211.146,512,234.667,512c23.521,0,42.667-19.135,42.667-42.667c0-14.158-14.629-44.564-24.796-64h58.682     c-6.372,10.888-12.553,23.594-12.553,32c0,17.646,14.354,32,32,32c17.646,0,32-14.354,32-32c0-8.406-6.181-21.112-12.553-32     h12.553c58.813,0,106.667-47.854,106.667-106.667c0-25.836-9.604-49.24-24.947-67.717c13.659-17.685,21.885-38.434,23.945-60.283     h33.001c5.896,0,10.667-4.771,10.667-10.667S507.229,149.333,501.333,149.333z M256,469.333c0,11.76-9.563,21.333-21.333,21.333     c-11.771,0-21.333-9.573-21.333-21.333c0-7.25,9.917-29.979,21.333-52.135C246.083,439.354,256,462.083,256,469.333z      M330.667,448c-5.875,0-10.667-4.781-10.667-10.656c0.083-3.26,4.521-12.552,10.667-22.906     c6.146,10.333,10.563,19.625,10.667,22.896C341.333,443.219,336.542,448,330.667,448z M448,298.667     C448,345.719,409.729,384,362.667,384H85.333c-35.292,0-64-28.708-64-64s28.708-64,64-64C91.229,256,96,251.229,96,245.333     c0-5.896-4.771-10.667-10.667-10.667c-3.02,0-5.879,0.585-8.819,0.892C86.319,174.258,139.288,128,202.667,128     c49.551,0,94.474,29.395,115.391,73.837c-5.147,2.374-10.152,5.087-14.911,8.288c-4.875,3.292-6.188,9.917-2.896,14.813     c3.313,4.896,9.958,6.167,14.813,2.896c14.083-9.49,30.563-14.5,47.604-14.5C409.729,213.333,448,251.615,448,298.667z      M429.116,215.9c-18.289-14.716-41.204-23.9-66.449-23.9c-8.275,0-16.366,1.224-24.289,3.074     c-14.939-33.172-41.133-59.332-73.198-74.279C280.576,86.543,314.185,64,352,64c52.938,0,96,43.063,96,96     C448,180.092,441.141,199.474,429.116,215.9z"/>
			<path d="M129.896,431.271c-6.979,10.115-23.229,35.094-23.229,48.729c0,17.646,14.354,32,32,32c17.646,0,32-14.354,32-32     c0-13.635-16.25-38.615-23.229-48.729C143.479,425.5,133.854,425.5,129.896,431.271z M138.667,490.667     c-5.875,0-10.667-4.781-10.667-10.656c0.083-3.26,4.521-12.552,10.667-22.906c6.146,10.333,10.563,19.625,10.667,22.896     C149.333,485.885,144.542,490.667,138.667,490.667z"/>
		</g>
	</g>
</g>
<g>
</g>
<g>
</g>
<g>
</g>
<g>
</g>
<g>
</g>
<g>
</g>
<g>
</g>
<g>
</g>
<g>
</g>
<g>
</g>
<g>
</g>
<g>
</g>
<g>
</g>
<g>
</g>
<g>
</g>
</svg>
