<?xml version="1.0" encoding="iso-8859-1"?>
<!-- Generator: Adobe Illustrator 19.0.0, SVG Export Plug-In . SVG Version: 6.00 Build 0)  -->
<svg xmlns="http://www.w3.org/2000/svg" xmlns:xlink="http://www.w3.org/1999/xlink" version="1.1" id="Layer_1" x="0px" y="0px" viewBox="0 0 512 512" style="enable-background:new 0 0 512 512;" xml:space="preserve">
<g>
	<g>
		<g>
			<path d="M352,256c0-75.115,33.927-154.094,93.083-216.677c2.323-2.448,3.344-5.865,2.75-9.188     c-0.594-3.333-2.729-6.177-5.75-7.688C404.771,3.896,355.105,0,320,0C178.844,0,64,114.844,64,256s114.844,256,256,256     c35.104,0,84.771-3.896,122.083-22.448c3.021-1.51,5.156-4.354,5.75-7.688c0.594-3.323-0.427-6.74-2.75-9.188     C385.928,410.094,352,331.115,352,256z M320,490.667C190.605,490.667,85.334,385.396,85.334,256S190.605,21.333,320,21.333     c28.698,0,67.615,2.688,99.396,14.531C362.844,100.49,330.667,179.938,330.667,256s32.177,155.51,88.729,220.135     C387.615,487.979,348.698,490.667,320,490.667z"/>
			<path d="M213.334,224c0-29.406-19.135-53.333-42.667-53.333S128,194.594,128,224s19.135,53.333,42.667,53.333     S213.334,253.406,213.334,224z M149.334,224c0-17.344,9.771-32,21.333-32S192,206.656,192,224s-9.771,32-21.333,32     S149.334,241.344,149.334,224z"/>
			<path d="M172.24,298.667c-6.771,0-12.792,3.031-16.958,8.531c-6.479,8.583-7.75,22.083-3.5,37.052     c5.469,19.271,20.875,39.75,38.646,39.75c6.771,0,12.792-3.031,16.958-8.531c6.479-8.583,7.75-22.083,3.5-37.052     C205.417,319.146,190.011,298.667,172.24,298.667z M190.428,362.667c-3.958,0-13.854-9.208-18.125-24.25     c-3.198-11.25-0.958-17.615-0.063-18.417c3.958,0,13.854,9.208,18.125,24.25C193.563,355.5,191.323,361.865,190.428,362.667z"/>
		</g>
	</g>
</g>
<g>
</g>
<g>
</g>
<g>
</g>
<g>
</g>
<g>
</g>
<g>
</g>
<g>
</g>
<g>
</g>
<g>
</g>
<g>
</g>
<g>
</g>
<g>
</g>
<g>
</g>
<g>
</g>
<g>
</g>
</svg>
