<?xml version="1.0" encoding="iso-8859-1"?>
<!-- Generator: Adobe Illustrator 19.0.0, SVG Export Plug-In . SVG Version: 6.00 Build 0)  -->
<svg xmlns="http://www.w3.org/2000/svg" xmlns:xlink="http://www.w3.org/1999/xlink" version="1.1" id="Layer_1" x="0px" y="0px" viewBox="0 0 512 512" style="enable-background:new 0 0 512 512;" xml:space="preserve">
<g>
	<g>
		<g>
			<path d="M372.49,28.229c-4.104-2.115-9.125-1.333-12.406,1.948c-3.271,3.271-4.063,8.281-1.948,12.406     C375.292,76.094,384,112.01,384,149.333c0,52.932-18.146,104.641-51.02,145.969c-4.135,2.009-8.832,3.365-15.71,3.365     c-11.969,0-17.521-3.865-24.542-8.75c-8.042-5.604-18.063-12.583-36.729-12.583c-18.688,0-28.719,6.969-36.781,12.573     c-7.031,4.896-12.594,8.76-24.583,8.76c-5.896,0-10.667,4.771-10.667,10.667c0,5.896,4.771,10.667,10.667,10.667     c18.677,0,28.708-6.969,36.771-12.573c7.031-4.896,12.594-8.76,24.594-8.76c11.969,0,17.521,3.865,24.542,8.75     c8.042,5.604,18.063,12.583,36.729,12.583c18.677,0,28.708-6.979,36.76-12.583c7.031-4.885,12.583-8.75,24.563-8.75     c5.896,0,10.667-4.771,10.667-10.667s-4.771-10.667-10.667-10.667c-3.059,0-5.556,0.432-8.18,0.77     c22.615-38.893,34.919-83.404,34.919-128.77c0-29.406-4.948-58-14.74-85.385C453.021,107.542,490.667,178.563,490.667,256     c0,129.396-105.271,234.667-234.667,234.667c-54.901,0-107.237-19.197-149.191-53.993c0.608-0.418,1.306-0.85,1.889-1.257     c7.031-4.885,12.583-8.75,24.563-8.75c12,0,17.563,3.865,24.604,8.76c8.052,5.604,18.083,12.573,36.771,12.573     c18.677,0,28.708-6.969,36.771-12.573c7.031-4.896,12.594-8.76,24.594-8.76c5.896,0,10.667-4.771,10.667-10.667     c0-5.896-4.771-10.667-10.667-10.667c-18.688,0-28.719,6.969-36.781,12.573c-7.031,4.896-12.594,8.76-24.583,8.76     c-12,0-17.563-3.865-24.594-8.76c-8.063-5.604-18.094-12.573-36.781-12.573c-18.677,0-28.698,6.969-36.75,12.573     c-7.031,4.896-12.583,8.76-24.573,8.76c-11.969,0-17.521-3.865-24.542-8.75c-8.042-5.604-18.063-12.583-36.729-12.583     C4.771,405.333,0,410.104,0,416c0,5.896,4.771,10.667,10.667,10.667c11.969,0,17.521,3.865,24.542,8.75     C43.25,441.021,53.271,448,71.938,448c5.186,0,9.589-0.615,13.585-1.512C132.486,488.667,192.701,512,256,512     c141.156,0,256-114.844,256-256C512,159.604,458.542,72.323,372.49,28.229z"/>
			<path d="M117.333,106.667c41.167,0,74.667,33.5,74.667,74.667c0,5.896,4.771,10.667,10.667,10.667     c5.896,0,10.667-4.771,10.667-10.667c0-41.167,33.5-74.667,74.667-74.667c5.896,0,10.667-4.771,10.667-10.667     S293.896,85.333,288,85.333c-41.167,0-74.667-33.5-74.667-74.667C213.333,4.771,208.563,0,202.667,0     C196.771,0,192,4.771,192,10.667c0,41.167-33.5,74.667-74.667,74.667c-5.896,0-10.667,4.771-10.667,10.667     S111.438,106.667,117.333,106.667z M202.667,54.625c9.156,17.708,23.667,32.219,41.375,41.375     c-17.708,9.156-32.219,23.667-41.375,41.375C193.51,119.667,179,105.156,161.292,96C179,86.844,193.51,72.333,202.667,54.625z"/>
			<path d="M10.667,234.667c11.969,0,17.521,3.865,24.542,8.75C43.25,249.021,53.271,256,71.938,256     c18.677,0,28.708-6.979,36.76-12.583c7.031-4.885,12.583-8.75,24.563-8.75c12,0,17.563,3.865,24.604,8.76     c8.052,5.604,18.083,12.573,36.771,12.573c18.677,0,28.708-6.969,36.771-12.573c7.031-4.896,12.594-8.76,24.594-8.76     c5.896,0,10.667-4.771,10.667-10.667s-4.771-10.667-10.667-10.667c-18.688,0-28.719,6.969-36.781,12.573     c-7.031,4.896-12.594,8.76-24.583,8.76c-12,0-17.563-3.865-24.594-8.76c-8.063-5.604-18.094-12.573-36.781-12.573     c-18.677,0-28.698,6.969-36.75,12.573c-7.031,4.896-12.583,8.76-24.573,8.76c-11.969,0-17.521-3.865-24.542-8.75     c-8.042-5.604-18.063-12.583-36.729-12.583C4.771,213.333,0,218.104,0,224S4.771,234.667,10.667,234.667z"/>
			<path d="M10.667,362.667c11.969,0,17.521,3.865,24.542,8.75C43.25,377.021,53.271,384,71.938,384     c5.896,0,10.667-4.771,10.667-10.667c0-5.896-4.771-10.667-10.667-10.667c-11.969,0-17.521-3.865-24.542-8.75     c-8.042-5.604-18.063-12.583-36.729-12.583C4.771,341.333,0,346.104,0,352C0,357.896,4.771,362.667,10.667,362.667z"/>
			<path d="M122.594,352c0,5.896,4.771,10.667,10.667,10.667c12,0,17.563,3.865,24.594,8.76     c8.063,5.604,18.094,12.573,36.781,12.573c18.677,0,28.708-6.969,36.771-12.573c7.031-4.896,12.594-8.76,24.594-8.76     c12.198,0,18.406,3.969,26.25,8.99C291.302,377.438,301.563,384,320,384c5.896,0,10.667-4.771,10.667-10.667     c0-5.896-4.771-10.667-10.667-10.667c-12.198,0-18.406-3.969-26.25-8.99c-9.052-5.781-19.313-12.344-37.75-12.344     c-18.688,0-28.719,6.969-36.781,12.573c-7.031,4.896-12.594,8.76-24.583,8.76c-12,0-17.563-3.865-24.604-8.76     c-8.052-5.604-18.083-12.573-36.771-12.573C127.365,341.333,122.594,346.104,122.594,352z"/>
			<path d="M10.667,298.667c11.969,0,17.521,3.865,24.542,8.75C43.25,313.021,53.271,320,71.938,320     c18.677,0,28.708-6.979,36.76-12.583c7.031-4.885,12.583-8.75,24.563-8.75c5.896,0,10.667-4.771,10.667-10.667     s-4.771-10.667-10.667-10.667c-18.677,0-28.698,6.969-36.75,12.573c-7.031,4.896-12.583,8.76-24.573,8.76     c-11.969,0-17.521-3.865-24.542-8.75c-8.042-5.604-18.063-12.583-36.729-12.583C4.771,277.333,0,282.104,0,288     S4.771,298.667,10.667,298.667z"/>
		</g>
	</g>
</g>
<g>
</g>
<g>
</g>
<g>
</g>
<g>
</g>
<g>
</g>
<g>
</g>
<g>
</g>
<g>
</g>
<g>
</g>
<g>
</g>
<g>
</g>
<g>
</g>
<g>
</g>
<g>
</g>
<g>
</g>
</svg>
