<?xml version="1.0" encoding="iso-8859-1"?>
<!-- Generator: Adobe Illustrator 19.0.0, SVG Export Plug-In . SVG Version: 6.00 Build 0)  -->
<svg xmlns="http://www.w3.org/2000/svg" xmlns:xlink="http://www.w3.org/1999/xlink" version="1.1" id="Layer_1" x="0px" y="0px" viewBox="0 0 512 512" style="enable-background:new 0 0 512 512;" xml:space="preserve">
<g>
	<g>
		<g>
			<path d="M512,208c0-64.042-40.427-120.302-102.979-143.344c-3.896-1.448-8.302-0.49-11.229,2.469     c-2.938,2.938-3.906,7.323-2.469,11.229c5.479,14.875,10.01,28.479,10.01,44.313c0,51.69-29.536,97.539-75.645,119.711     c-26.788-43.668-74.725-71.711-127.022-71.711c-76.84,0-140.449,58.299-148.202,133.996C22.669,317.083,0,347.861,0,384     c0,47.052,38.281,85.333,85.333,85.333h277.333c58.813,0,106.667-47.854,106.667-106.667c0-14.34-2.934-27.987-8.089-40.49     C493.492,292.849,512,251.814,512,208z M362.667,448H85.333c-35.292,0-64-28.708-64-64c0-35.292,28.708-64,64-64     C91.229,320,96,315.229,96,309.333c0-5.896-4.771-10.667-10.667-10.667c-3.018,0-5.875,0.583-8.813,0.891     C86.344,238.254,139.29,192,202.667,192c49.553,0,94.487,29.396,115.413,73.833c-5.152,2.376-10.163,5.094-14.923,8.302     c-4.885,3.292-6.177,9.917-2.885,14.802c3.302,4.885,9.927,6.167,14.802,2.885c14.073-9.479,30.531-14.49,47.594-14.49     c47.052,0,85.333,38.281,85.333,85.333C448,409.719,409.719,448,362.667,448z M362.667,256c-4.926,0-9.799,0.415-14.618,1.077     c48.286-27.189,78.618-77.872,78.618-134.41c0-10.094-1.458-19.323-3.708-28.146c41.771,23.594,67.708,66.094,67.708,113.479     c0,35.964-14.41,69.819-39.785,94.818C431.669,274.594,399.306,256,362.667,256z"/>
			<path d="M245.333,106.667c15.458,0,18.979,2.073,24.458,7.542c5.469,5.479,7.542,9,7.542,24.458     c0,5.896,4.771,10.667,10.667,10.667s10.667-4.771,10.667-10.667c0-15.458,2.073-18.979,7.542-24.458     c5.479-5.469,9-7.542,24.458-7.542c5.896,0,10.667-4.771,10.667-10.667s-4.771-10.667-10.667-10.667     c-15.458,0-18.979-2.073-24.458-7.542c-5.469-5.479-7.542-9-7.542-24.458c0-5.896-4.771-10.667-10.667-10.667     s-10.667,4.771-10.667,10.667c0,15.458-2.073,18.979-7.542,24.458c-5.479,5.469-9,7.542-24.458,7.542     c-5.896,0-10.667,4.771-10.667,10.667S239.438,106.667,245.333,106.667z M284.875,92.875c1.125-1.125,2.167-2.229,3.125-3.344     c0.958,1.115,2,2.219,3.125,3.344s2.229,2.167,3.344,3.125c-1.115,0.958-2.219,2-3.344,3.125s-2.167,2.229-3.125,3.344     c-0.958-1.115-2-2.219-3.125-3.344s-2.229-2.167-3.344-3.125C282.646,95.042,283.75,94,284.875,92.875z"/>
		</g>
	</g>
</g>
<g>
</g>
<g>
</g>
<g>
</g>
<g>
</g>
<g>
</g>
<g>
</g>
<g>
</g>
<g>
</g>
<g>
</g>
<g>
</g>
<g>
</g>
<g>
</g>
<g>
</g>
<g>
</g>
<g>
</g>
</svg>
