<?xml version="1.0" encoding="iso-8859-1"?>
<!-- Generator: Adobe Illustrator 19.0.0, SVG Export Plug-In . SVG Version: 6.00 Build 0)  -->
<svg xmlns="http://www.w3.org/2000/svg" xmlns:xlink="http://www.w3.org/1999/xlink" version="1.1" id="Layer_1" x="0px" y="0px" viewBox="0 0 512 512" style="enable-background:new 0 0 512 512;" xml:space="preserve">
<g>
	<g>
		<g>
			<path d="M372.5,28.229c-4.104-2.094-9.146-1.344-12.417,1.948c-3.271,3.271-4.063,8.281-1.958,12.406     C375.292,76.094,384,112.01,384,149.333C384,278.729,278.729,384,149.333,384c-37.333,0-73.25-8.708-106.771-25.875     c-4.104-2.125-9.125-1.344-12.396,1.948c-3.271,3.271-4.063,8.281-1.958,12.406C72.313,458.542,159.604,512,256,512     c141.167,0,256-114.844,256-256C512,159.604,458.542,72.323,372.5,28.229z M256,490.667     c-77.438,0-148.479-37.646-192.063-100.073c27.375,9.792,55.979,14.74,85.396,14.74c141.167,0,256-114.844,256-256     c0-29.406-4.938-58-14.729-85.385C453.021,107.542,490.667,178.563,490.667,256C490.667,385.396,385.396,490.667,256,490.667z"/>
			<path d="M117.333,106.667c41.167,0,74.667,33.5,74.667,74.667c0,5.896,4.771,10.667,10.667,10.667     c5.896,0,10.667-4.771,10.667-10.667c0-41.167,33.5-74.667,74.667-74.667c5.896,0,10.667-4.771,10.667-10.667     S293.896,85.333,288,85.333c-41.167,0-74.667-33.5-74.667-74.667C213.333,4.771,208.563,0,202.667,0     C196.771,0,192,4.771,192,10.667c0,41.167-33.5,74.667-74.667,74.667c-5.896,0-10.667,4.771-10.667,10.667     S111.438,106.667,117.333,106.667z M202.667,54.625c9.167,17.708,23.667,32.219,41.375,41.375     c-17.708,9.156-32.208,23.667-41.375,41.375C193.5,119.667,179,105.156,161.292,96C179,86.844,193.5,72.333,202.667,54.625z"/>
			<path d="M64,309.333C64,315.229,68.771,320,74.667,320c5.896,0,10.667-4.771,10.667-10.667c0-29.406,23.917-53.333,53.333-53.333     c5.896,0,10.667-4.771,10.667-10.667c0-5.896-4.771-10.667-10.667-10.667c-29.417,0-53.333-23.927-53.333-53.333     c0-5.896-4.771-10.667-10.667-10.667c-5.896,0-10.667,4.771-10.667,10.667c0,29.406-23.917,53.333-53.333,53.333     C4.771,234.667,0,239.438,0,245.333C0,251.229,4.771,256,10.667,256C40.083,256,64,279.927,64,309.333z M74.667,219.76     c6.313,10.458,15.104,19.271,25.583,25.573c-10.479,6.302-19.271,15.115-25.583,25.573     c-6.313-10.458-15.104-19.271-25.583-25.573C59.563,239.031,68.354,230.219,74.667,219.76z"/>
		</g>
	</g>
</g>
<g>
</g>
<g>
</g>
<g>
</g>
<g>
</g>
<g>
</g>
<g>
</g>
<g>
</g>
<g>
</g>
<g>
</g>
<g>
</g>
<g>
</g>
<g>
</g>
<g>
</g>
<g>
</g>
<g>
</g>
</svg>
