<?xml version="1.0" encoding="iso-8859-1"?>
<!-- Generator: Adobe Illustrator 19.0.0, SVG Export Plug-In . SVG Version: 6.00 Build 0)  -->
<svg xmlns="http://www.w3.org/2000/svg" xmlns:xlink="http://www.w3.org/1999/xlink" version="1.1" id="Layer_1" x="0px" y="0px" viewBox="0 0 512 512" style="enable-background:new 0 0 512 512;" xml:space="preserve">
<g>
	<g>
		<g>
			<path d="M256,128c5.896,0,10.667-4.771,10.667-10.667V96c0-5.896-4.771-10.667-10.667-10.667S245.333,90.104,245.333,96v21.333     C245.333,123.229,250.104,128,256,128z"/>
			<path d="M163.906,117.823c-2.958-5.115-9.49-6.875-14.573-3.906c-5.104,2.948-6.854,9.469-3.906,14.573l10.667,18.469     c1.979,3.427,5.563,5.333,9.25,5.333c1.813,0,3.646-0.458,5.323-1.427c5.104-2.948,6.854-9.469,3.906-14.573L163.906,117.823z"/>
			<path d="M104.292,198.76l-18.469-10.667c-5.125-2.958-11.625-1.208-14.573,3.906c-2.948,5.104-1.198,11.625,3.906,14.573     l18.469,10.667c1.677,0.969,3.51,1.427,5.323,1.427c3.688,0,7.271-1.906,9.25-5.333     C111.146,208.229,109.396,201.708,104.292,198.76z"/>
			<path d="M436.844,390.76l-18.469-10.667c-5.115-2.958-11.635-1.208-14.573,3.906c-2.948,5.104-1.198,11.625,3.906,14.573     l18.469,10.667c1.677,0.969,3.51,1.427,5.323,1.427c3.688,0,7.271-1.906,9.25-5.333     C443.698,400.229,441.948,393.708,436.844,390.76z"/>
			<path d="M85.333,298.667c0-5.896-4.771-10.667-10.667-10.667H53.333c-5.896,0-10.667,4.771-10.667,10.667     c0,5.896,4.771,10.667,10.667,10.667h21.333C80.563,309.333,85.333,304.563,85.333,298.667z"/>
			<path d="M469.333,298.667c0-5.896-4.771-10.667-10.667-10.667h-21.333c-5.896,0-10.667,4.771-10.667,10.667     c0,5.896,4.771,10.667,10.667,10.667h21.333C464.563,309.333,469.333,304.563,469.333,298.667z"/>
			<path d="M93.625,380.094L75.156,390.76c-5.104,2.948-6.854,9.469-3.906,14.573c1.979,3.427,5.563,5.333,9.25,5.333     c1.813,0,3.646-0.458,5.323-1.427l18.469-10.667c5.104-2.948,6.854-9.469,3.906-14.573     C105.24,378.885,98.688,377.135,93.625,380.094z"/>
			<path d="M413.052,218.667c1.813,0,3.646-0.458,5.323-1.427l18.469-10.667c5.104-2.948,6.854-9.469,3.906-14.573     c-2.969-5.115-9.5-6.865-14.573-3.906l-18.469,10.667c-5.104,2.948-6.854,9.469-3.906,14.573     C405.781,216.76,409.365,218.667,413.052,218.667z"/>
			<path d="M362.667,113.917c-5.104-2.969-11.635-1.208-14.573,3.906l-10.667,18.469c-2.948,5.104-1.198,11.625,3.906,14.573     c1.677,0.969,3.51,1.427,5.323,1.427c3.688,0,7.271-1.906,9.25-5.333l10.667-18.469     C369.521,123.385,367.771,116.865,362.667,113.917z"/>
			<path d="M256,42.667c-141.156,0-256,114.844-256,256c0,42.75,10.771,85.094,31.156,122.448c2.823,5.167,9.292,7.063,14.479,4.25     c5.167-2.823,7.073-9.302,4.25-14.479c-18.677-34.219-28.552-73.031-28.552-112.219C21.333,169.271,126.604,64,256,64     s234.667,105.271,234.667,234.667c0,39.188-9.875,78-28.552,112.219c-2.823,5.177-0.917,11.656,4.25,14.479     c1.625,0.885,3.375,1.302,5.104,1.302c3.781,0,7.438-2.01,9.375-5.552C501.229,383.76,512,341.417,512,298.667     C512,157.51,397.156,42.667,256,42.667z"/>
			<path d="M266.625,180.396c-0.479-5.5-5.094-9.729-10.625-9.729s-10.146,4.229-10.625,9.729l-18.927,215.646     c-8.385,8.042-13.115,18.958-13.115,30.625c0,23.531,19.135,42.667,42.667,42.667s42.667-19.135,42.667-42.667     c0-11.667-4.729-22.583-13.115-30.625L266.625,180.396z M256,448c-11.76,0-21.333-9.573-21.333-21.333     c0-6.615,3.104-12.771,8.5-16.896c2.385-1.823,3.896-4.563,4.156-7.542L256,303.354l8.677,98.875     c0.26,2.979,1.771,5.719,4.156,7.542c5.396,4.125,8.5,10.281,8.5,16.896C277.333,438.427,267.76,448,256,448z"/>
		</g>
	</g>
</g>
<g>
</g>
<g>
</g>
<g>
</g>
<g>
</g>
<g>
</g>
<g>
</g>
<g>
</g>
<g>
</g>
<g>
</g>
<g>
</g>
<g>
</g>
<g>
</g>
<g>
</g>
<g>
</g>
<g>
</g>
</svg>
