<?xml version="1.0" encoding="iso-8859-1"?>
<!-- Generator: Adobe Illustrator 19.0.0, SVG Export Plug-In . SVG Version: 6.00 Build 0)  -->
<svg xmlns="http://www.w3.org/2000/svg" xmlns:xlink="http://www.w3.org/1999/xlink" version="1.1" id="Layer_1" x="0px" y="0px" viewBox="0 0 511.999 511.999" style="enable-background:new 0 0 511.999 511.999;" xml:space="preserve">
<g>
	<g>
		<path d="M490.416,256h-10.417c-89.938,0-107.896-20.208-143.667-60.458c-8.74-9.844-18.375-20.667-30.125-32.417    c-58.156-58.167-100.438-77.792-167.542-77.792c-15.706,0-27.72,16.322-36.35,41.363L2.135,260.27    c-1.75,2.333-2.469,5.271-1.99,8.146c0.479,2.885,2.115,5.438,4.531,7.073l85.939,58.388c7.5,51.941,23.16,92.789,48.051,92.789    c17.573,0,34.667-13.031,54.469-28.115c22.063-16.823,47.083-35.885,73.531-35.885c24.354,0,40.229,4.74,57.031,9.771    C342.718,378.125,362.395,384,394.666,384c57.042,0,94.333-9.344,105.021-26.313c7.708-12.24,12.313-34.302,12.313-59.021    C511.999,285.895,511.999,256,490.416,256z M35.67,270.759l49.674-13.862c0.025,16.374,0.737,32.949,2.111,49.046L35.67,270.759z     M85.755,234.642l-47.727,13.319l52.643-70.195C88.053,195.799,86.439,215.149,85.755,234.642z M138.666,405.333    c-5.755,0-16.102-18.714-23.482-54.764l39.863,27.083C149.059,395.66,142.722,405.333,138.666,405.333z M160.938,355.869    l-50.52-34.324c-2.302-18.775-3.753-40.603-3.753-65.546c0-55.128,7.051-94.738,14.913-119.445l20.809-27.745    c10.668,10.134,28.279,59.772,28.279,147.19C170.666,298.398,166.433,331.392,160.938,355.869z M237.172,346.876    c-21.061,7.544-39.836,21.648-56.975,34.707c-1.79,1.365-3.508,2.628-5.271,3.961c11.566-33.393,17.073-82.457,17.073-129.544    c0-56.563-7.905-116.086-24.773-147.717c25.673,2.845,49.284,10.823,75.73,29.003c8.24,25.174,13.043,60.25,13.043,97.382    C255.999,280.735,248.803,322.998,237.172,346.876z M323.844,350.267c-15.798-4.63-32.763-8.934-57.178-8.934    c-1.478,0-2.888,0.255-4.345,0.336c9.491-27.244,15.012-65.341,15.012-107.003c0-27.225-2.641-53.365-7.113-76.137    c6.702,5.914,13.626,12.4,20.905,19.678c11.417,11.417,20.771,21.948,29.26,31.5c5.552,6.249,10.776,12.081,15.975,17.566    c3.207,14.285,4.973,29.276,4.973,44.725C341.333,303.927,334.573,333.507,323.844,350.267z M412.718,362.237    c-5.671,0.234-11.505,0.43-18.052,0.43c-21.207,0-36.121-2.776-49.775-6.388c11.103-20.674,17.775-51.191,17.775-84.279    c0-7.5-0.563-14.858-1.258-22.167c15.224,10.957,33.516,18.875,59.98,23.328c3.358,12.332,5.277,26.727,5.277,41.505    C426.666,333.476,419.818,351.39,412.718,362.237z M481.645,346.312c-2.065,3.281-13.96,10.28-43.837,13.96    c6.212-14.105,10.191-30.477,10.191-45.605c0-13.759-1.815-26.616-4.422-38.76c10.91,0.918,22.904,1.427,36.422,1.427h8.406    c0.844,2.094,2.26,7.656,2.26,21.333C490.666,318.906,487.124,337.614,481.645,346.312z"/>
	</g>
</g>
<g>
</g>
<g>
</g>
<g>
</g>
<g>
</g>
<g>
</g>
<g>
</g>
<g>
</g>
<g>
</g>
<g>
</g>
<g>
</g>
<g>
</g>
<g>
</g>
<g>
</g>
<g>
</g>
<g>
</g>
</svg>
