<?xml version="1.0" encoding="iso-8859-1"?>
<!-- Generator: Adobe Illustrator 19.0.0, SVG Export Plug-In . SVG Version: 6.00 Build 0)  -->
<svg xmlns="http://www.w3.org/2000/svg" xmlns:xlink="http://www.w3.org/1999/xlink" version="1.1" id="Layer_1" x="0px" y="0px" viewBox="0 0 512 512" style="enable-background:new 0 0 512 512;" xml:space="preserve">
<g>
	<g>
		<g>
			<path d="M501.333,341.333c-29.635,0-50.052,1.37-65.783,3.4c6.923-18.254,10.751-37.258,11.832-56.733h53.951     c5.896,0,10.667-4.771,10.667-10.667c0-5.896-4.771-10.667-10.667-10.667H447.46c-2.484-44.888-20.374-85.634-48.572-117.129     l38.133-38.142c4.167-4.167,4.167-10.917,0-15.083c-4.167-4.167-10.917-4.167-15.083,0l-38.133,38.141     c-31.493-28.202-72.243-46.095-117.138-48.579V32c0-5.896-4.771-10.667-10.667-10.667S245.333,26.104,245.333,32v53.874     c-44.895,2.484-85.645,20.378-117.138,48.579L90.063,96.313c-4.167-4.167-10.917-4.167-15.083,0     c-4.167,4.167-4.167,10.917,0,15.083l38.133,38.142c-28.198,31.495-46.087,72.241-48.572,117.129H10.667     C4.771,266.667,0,271.438,0,277.333C0,283.229,4.771,288,10.667,288h53.951c1.081,19.477,4.909,38.482,11.832,56.734     c-15.724-2.031-36.139-3.401-65.783-3.401C4.771,341.333,0,346.104,0,352c0,5.896,4.771,10.667,10.667,10.667     c57.354,0,77.5,5.031,98.854,10.354c21.646,5.396,44.021,10.979,104,10.979c5.896,0,10.667-4.771,10.667-10.667     c0-5.896-4.771-10.667-10.667-10.667c-57.354,0-77.5-5.031-98.854-10.354c-4.208-1.049-8.533-2.095-13.066-3.116     c-10.66-22.758-16.267-46.875-16.267-71.863c0-94.104,76.563-170.667,170.667-170.667s170.667,76.563,170.667,170.667     c0,24.99-5.608,49.107-16.268,71.858c-4.548,1.022-8.887,2.07-13.107,3.121c-21.375,5.323-41.542,10.354-98.896,10.354     c-5.896,0-10.667,4.771-10.667,10.667c0,5.896,4.771,10.667,10.667,10.667c59.979,0,82.375-5.583,104.042-10.979     c21.354-5.323,41.542-10.354,98.896-10.354c5.896,0,10.667-4.771,10.667-10.667C512,346.104,507.229,341.333,501.333,341.333z"/>
			<path d="M291.125,429.792l-24.458,24.458V330.667c0-5.896-4.771-10.667-10.667-10.667s-10.667,4.771-10.667,10.667V454.25     l-24.458-24.458c-4.167-4.167-10.917-4.167-15.083,0c-4.167,4.167-4.167,10.917,0,15.083l42.654,42.654     c0.987,0.99,2.169,1.775,3.482,2.318c1.303,0.539,2.685,0.82,4.073,0.82s2.77-0.281,4.073-0.82     c1.313-0.543,2.495-1.328,3.482-2.318l42.654-42.654c4.167-4.167,4.167-10.917,0-15.083     C302.042,425.625,295.292,425.625,291.125,429.792z"/>
		</g>
	</g>
</g>
<g>
</g>
<g>
</g>
<g>
</g>
<g>
</g>
<g>
</g>
<g>
</g>
<g>
</g>
<g>
</g>
<g>
</g>
<g>
</g>
<g>
</g>
<g>
</g>
<g>
</g>
<g>
</g>
<g>
</g>
</svg>
