<?xml version="1.0" encoding="iso-8859-1"?>
<!-- Generator: Adobe Illustrator 19.0.0, SVG Export Plug-In . SVG Version: 6.00 Build 0)  -->
<svg xmlns="http://www.w3.org/2000/svg" xmlns:xlink="http://www.w3.org/1999/xlink" version="1.1" id="Layer_1" x="0px" y="0px" viewBox="0 0 512 512" style="enable-background:new 0 0 512 512;" xml:space="preserve">
<g>
	<g>
		<g>
			<path d="M258.083,416c-2.938-5.125-9.479-6.833-14.563-3.906l-30.188,17.428v-24.189h117.333c41.167,0,74.667-33.5,74.667-74.667     c0-11.495-2.828-22.263-7.49-32h7.49C464.146,298.667,512,250.813,512,192S464.146,85.333,405.333,85.333     c-8.275,0-16.366,1.224-24.289,3.074C357.124,35.29,303.995,0,245.333,0C168.098,0,104.276,58.389,97.044,134.022     c-31.755,12.44-54.378,43.202-54.378,79.311c0,4.918,0.717,9.997,1.783,15.283C17.802,245.694,0,275.4,0,309.333     c0,52.938,43.063,96,96,96h96v24.189l-30.188-17.428c-5.104-2.927-11.646-1.208-14.563,3.906     c-2.958,5.104-1.208,11.625,3.896,14.573L181.331,448l-30.185,17.427c-5.104,2.948-6.854,9.469-3.896,14.573     c1.958,3.427,5.563,5.333,9.229,5.333c1.813,0,3.646-0.458,5.333-1.427L192,466.478v34.855c0,5.896,4.771,10.667,10.667,10.667     c5.896,0,10.667-4.771,10.667-10.667v-34.855l30.188,17.428c1.688,0.969,3.521,1.427,5.333,1.427     c3.667,0,7.271-1.906,9.229-5.333c2.958-5.104,1.208-11.625-3.896-14.573L224.003,448l30.185-17.427     C259.292,427.625,261.042,421.104,258.083,416z M128,149.333c5.896,0,10.667-4.771,10.667-10.667     c0-5.896-4.771-10.667-10.667-10.667c-3.087,0-6.012,0.59-9.016,0.911c9.375-61.255,62.595-107.578,126.349-107.578     c49.551,0,94.474,29.395,115.391,73.837c-5.147,2.374-10.152,5.087-14.911,8.288c-4.875,3.292-6.188,9.917-2.896,14.813     c3.313,4.906,9.958,6.156,14.813,2.896c14.083-9.49,30.563-14.5,47.604-14.5c47.063,0,85.333,38.281,85.333,85.333     s-38.271,85.333-85.333,85.333h-22.577c-6.13-5.988-13.323-10.841-21.21-14.452c-7.229-64.189-61.578-113.548-126.88-113.548     c-47.431,0-90.457,26.488-112.605,67.944c-8.462-2.397-17.181-3.944-26.061-3.944c-11.1,0-21.599,2.268-31.525,5.749     c-0.217-1.941-0.475-3.898-0.475-5.749C64,178.042,92.708,149.333,128,149.333z M96,384c-41.167,0-74.667-33.5-74.667-74.667     c0-41.167,33.5-74.667,74.667-74.667c17.146,0,33.292,5.656,46.646,16.354c4.563,3.698,11.271,2.979,15-1.656     c3.667-4.594,2.938-11.313-1.667-14.99c-4.384-3.513-9.078-6.576-13.978-9.247c18.785-33.302,53.978-54.461,92.665-54.461     c51.465,0,94.466,36.908,104.111,86.154c-2.699-0.297-5.333-0.82-8.111-0.82c-5.896,0-10.667,4.771-10.667,10.667     c0,5.896,4.771,10.667,10.667,10.667c29.417,0,53.333,23.927,53.333,53.333S360.083,384,330.667,384H96z"/>
			<path d="M492.75,394.667c-2.938-5.135-9.5-6.854-14.563-3.906L448,408.189v-34.855c0-5.896-4.771-10.667-10.667-10.667     c-5.896,0-10.667,4.771-10.667,10.667v34.855l-30.188-17.428c-5.083-2.917-11.625-1.219-14.563,3.906     c-2.958,5.104-1.208,11.625,3.896,14.573l30.185,17.427l-30.185,17.427c-5.104,2.948-6.854,9.469-3.896,14.573     c1.958,3.427,5.563,5.333,9.229,5.333c1.813,0,3.646-0.458,5.333-1.427l30.188-17.428V480c0,5.896,4.771,10.667,10.667,10.667     c5.896,0,10.667-4.771,10.667-10.667v-34.855l30.188,17.428c1.688,0.969,3.521,1.427,5.333,1.427     c3.667,0,7.271-1.906,9.229-5.333c2.958-5.104,1.208-11.625-3.896-14.573l-30.185-17.427l30.185-17.427     C493.958,406.292,495.708,399.771,492.75,394.667z"/>
			<path d="M111.604,448c-2.938-5.135-9.458-6.844-14.563-3.906l-11.708,6.76v-13.521c0-5.896-4.771-10.667-10.667-10.667     c-5.896,0-10.667,4.771-10.667,10.667v13.521l-11.708-6.76c-5.104-2.906-11.646-1.219-14.563,3.906     c-2.958,5.104-1.208,11.625,3.896,14.573l11.707,6.76l-11.707,6.76c-5.104,2.948-6.854,9.469-3.896,14.573     c1.958,3.427,5.563,5.333,9.229,5.333c1.813,0,3.646-0.458,5.333-1.427L64,487.813v13.521C64,507.229,68.771,512,74.667,512     c5.896,0,10.667-4.771,10.667-10.667v-13.521l11.708,6.76c1.688,0.969,3.521,1.427,5.333,1.427c3.667,0,7.271-1.906,9.229-5.333     c2.958-5.104,1.208-11.625-3.896-14.573l-11.707-6.76l11.707-6.76C112.813,459.625,114.563,453.104,111.604,448z"/>
			<path d="M367.604,448c-2.938-5.135-9.479-6.844-14.563-3.906l-11.708,6.76v-13.521c0-5.896-4.771-10.667-10.667-10.667     c-5.896,0-10.667,4.771-10.667,10.667v13.521l-11.708-6.76c-5.083-2.906-11.625-1.219-14.563,3.906     c-2.958,5.104-1.208,11.625,3.896,14.573l11.707,6.76l-11.707,6.76c-5.104,2.948-6.854,9.469-3.896,14.573     c1.958,3.427,5.563,5.333,9.229,5.333c1.813,0,3.646-0.458,5.333-1.427l11.708-6.76v13.521c0,5.896,4.771,10.667,10.667,10.667     c5.896,0,10.667-4.771,10.667-10.667v-13.521l11.708,6.76c1.688,0.969,3.521,1.427,5.333,1.427c3.667,0,7.271-1.906,9.229-5.333     c2.958-5.104,1.208-11.625-3.896-14.573l-11.707-6.76l11.707-6.76C368.813,459.625,370.563,453.104,367.604,448z"/>
		</g>
	</g>
</g>
<g>
</g>
<g>
</g>
<g>
</g>
<g>
</g>
<g>
</g>
<g>
</g>
<g>
</g>
<g>
</g>
<g>
</g>
<g>
</g>
<g>
</g>
<g>
</g>
<g>
</g>
<g>
</g>
<g>
</g>
</svg>
