<?xml version="1.0" encoding="iso-8859-1"?>
<!-- Generator: Adobe Illustrator 19.0.0, SVG Export Plug-In . SVG Version: 6.00 Build 0)  -->
<svg xmlns="http://www.w3.org/2000/svg" xmlns:xlink="http://www.w3.org/1999/xlink" version="1.1" id="Layer_1" x="0px" y="0px" viewBox="0 0 512 512" style="enable-background:new 0 0 512 512;" xml:space="preserve">
<g>
	<g>
		<path d="M444.872,45.777c-3.25-3.25-8.188-4.042-12.313-2l-119.167,59.585L254.476,5.161c-2.354-3.938-7-5.865-11.458-4.927    c-4.479,0.99-7.813,4.74-8.292,9.302l-19.729,187.36l-92.896-46.449c-3.104-1.563-6.75-1.51-9.813,0.135    c-3.042,1.635-5.104,4.646-5.542,8.084L64.08,500.01c-0.604,4.854,2.167,9.5,6.729,11.271c1.25,0.49,2.563,0.719,3.854,0.719    c3.396,0,6.666-1.615,8.708-4.51l123.25-174.62l77.625,29.116c5.146,1.938,10.854-0.333,13.292-5.219L446.872,58.09    C448.934,53.986,448.122,49.027,444.872,45.777z M282.747,338.64l-76.333-28.636c-4.542-1.708-9.667-0.125-12.458,3.833    L90.538,460.353l35.5-284.082l93.188,46.595c3.146,1.573,6.813,1.479,9.896-0.188c3.063-1.677,5.125-4.761,5.479-8.24l18-170.943    l47.583,79.315c2.854,4.761,8.938,6.5,13.917,4.052l99.375-49.689L282.747,338.64z"/>
	</g>
</g>
<g>
</g>
<g>
</g>
<g>
</g>
<g>
</g>
<g>
</g>
<g>
</g>
<g>
</g>
<g>
</g>
<g>
</g>
<g>
</g>
<g>
</g>
<g>
</g>
<g>
</g>
<g>
</g>
<g>
</g>
</svg>
