<?xml version="1.0" encoding="iso-8859-1"?>
<!-- Generator: Adobe Illustrator 19.0.0, SVG Export Plug-In . SVG Version: 6.00 Build 0)  -->
<svg xmlns="http://www.w3.org/2000/svg" xmlns:xlink="http://www.w3.org/1999/xlink" version="1.1" id="Layer_1" x="0px" y="0px" viewBox="0 0 512 512" style="enable-background:new 0 0 512 512;" xml:space="preserve">
<g>
	<g>
		<g>
			<path d="M441.979,470.396C370.646,435.854,298.667,356.156,298.667,256S370.646,76.146,441.979,41.604     C445.667,39.823,448,36.094,448,32c0-4.083-2.333-7.813-6.01-9.604C400.26,2.188,342.781,0,320,0C178.844,0,64,114.844,64,256     s114.844,256,256,256c22.781,0,80.26-2.188,121.99-22.396c3.677-1.792,6.01-5.521,6.01-9.604     C448,475.906,445.667,472.177,441.979,470.396z M320,490.667C190.604,490.667,85.333,385.396,85.333,256     S190.604,21.333,320,21.333c34,0,66.688,4.448,91.896,12.24C330.563,81.781,277.333,168.531,277.333,256     s53.229,174.219,134.563,222.427C386.688,486.219,354,490.667,320,490.667z"/>
			<path d="M213.333,224c0-29.406-19.135-53.333-42.667-53.333S128,194.594,128,224s19.135,53.333,42.667,53.333     S213.333,253.406,213.333,224z M149.333,224c0-17.344,9.771-32,21.333-32S192,206.656,192,224s-9.771,32-21.333,32     S149.333,241.344,149.333,224z"/>
			<path d="M172.24,298.667c-6.771,0-12.792,3.031-16.958,8.531c-6.479,8.583-7.75,22.083-3.5,37.052     c5.469,19.271,20.875,39.75,38.646,39.75c6.771,0,12.792-3.031,16.958-8.531c6.479-8.583,7.75-22.083,3.5-37.052     C205.417,319.146,190.01,298.667,172.24,298.667z M190.427,362.667c-3.958,0-13.854-9.208-18.125-24.25     c-3.198-11.25-0.958-17.615-0.063-18.417c3.958,0,13.854,9.208,18.125,24.25C193.563,355.5,191.323,361.865,190.427,362.667z"/>
		</g>
	</g>
</g>
<g>
</g>
<g>
</g>
<g>
</g>
<g>
</g>
<g>
</g>
<g>
</g>
<g>
</g>
<g>
</g>
<g>
</g>
<g>
</g>
<g>
</g>
<g>
</g>
<g>
</g>
<g>
</g>
<g>
</g>
</svg>
