<?xml version="1.0" encoding="iso-8859-1"?>
<!-- Generator: Adobe Illustrator 19.0.0, SVG Export Plug-In . SVG Version: 6.00 Build 0)  -->
<svg xmlns="http://www.w3.org/2000/svg" xmlns:xlink="http://www.w3.org/1999/xlink" version="1.1" id="Layer_1" x="0px" y="0px" viewBox="0 0 512 512" style="enable-background:new 0 0 512 512;" xml:space="preserve">
<g>
	<g>
		<g>
			<path d="M501.333,149.333h-32.54c-2.208-24.35-11.849-46.576-26.682-64.361l23.025-23.025c4.167-4.167,4.167-10.917,0-15.083     c-4.167-4.167-10.917-4.167-15.083,0l-23.025,23.025c-17.785-14.833-40.01-24.474-64.361-26.682v-32.54     C362.667,4.771,357.896,0,352,0c-5.896,0-10.667,4.771-10.667,10.667V43.52c-23.99,2.217-46.107,11.703-63.995,26.736     l-23.391-23.391c-4.167-4.167-10.917-4.167-15.083,0c-4.167,4.167-4.167,10.917,0,15.083l23.445,23.445     c-6.848,8.302-12.54,17.594-16.986,27.75c-13.656-4.128-27.97-6.477-42.658-6.477c-76.845,0-140.443,58.293-148.191,133.992     C22.674,253.076,0,283.857,0,320c0,42.362,31.112,77.34,71.635,83.948L45.71,429.874c-4.172-1.996-8.784-3.207-13.71-3.207     c-17.646,0-32,14.354-32,32s14.354,32,32,32s32-14.354,32-32c0-4.926-1.211-9.538-3.207-13.71l39.624-39.624H262.25l-24.54,24.54     c-4.172-1.996-8.784-3.207-13.71-3.207c-17.646,0-32,14.354-32,32s14.354,32,32,32s32-14.354,32-32     c0-4.926-1.211-9.538-3.207-13.71l39.624-39.624h70.25c58.813,0,106.667-47.854,106.667-106.667     c0-25.835-9.605-49.237-24.947-67.716c13.655-17.681,21.885-38.436,23.945-60.284h33.001c5.896,0,10.667-4.771,10.667-10.667     S507.229,149.333,501.333,149.333z M32,469.333c-5.885,0-10.667-4.781-10.667-10.667S26.115,448,32,448     s10.667,4.781,10.667,10.667S37.885,469.333,32,469.333z M224,469.333c-5.885,0-10.667-4.781-10.667-10.667S218.115,448,224,448     s10.667,4.781,10.667,10.667S229.885,469.333,224,469.333z M448,298.667C448,345.719,409.719,384,362.667,384H85.333     c-35.292,0-64-28.708-64-64s28.708-64,64-64C91.229,256,96,251.229,96,245.333c0-5.896-4.771-10.667-10.667-10.667     c-3.016,0-5.87,0.583-8.806,0.891C86.339,174.255,139.288,128,202.667,128c49.551,0,94.48,29.395,115.409,73.835     c-5.151,2.376-10.16,5.092-14.919,8.301c-4.885,3.292-6.177,9.917-2.885,14.802c3.302,4.896,9.927,6.177,14.802,2.885     c14.073-9.479,30.531-14.49,47.594-14.49C409.719,213.333,448,251.615,448,298.667z M429.122,215.905     C410.832,201.185,387.914,192,362.667,192c-8.276,0-16.366,1.224-24.288,3.073c-14.932-33.172-41.125-59.331-73.191-74.276     C280.574,86.544,314.194,64,352,64c52.938,0,96,43.063,96,96C448,180.092,441.134,199.473,429.122,215.905z"/>
			<path d="M355.125,419.125l-32.082,32.082c-4.172-1.996-8.784-3.207-13.71-3.207c-17.646,0-32,14.354-32,32     c0,17.646,14.354,32,32,32c17.646,0,32-14.354,32-32c0-4.926-1.211-9.538-3.207-13.71l32.082-32.082     c4.167-4.167,4.167-10.917,0-15.083C366.042,414.958,359.292,414.958,355.125,419.125z M309.333,490.667     c-5.885,0-10.667-4.781-10.667-10.667c0-5.885,4.781-10.667,10.667-10.667c5.885,0,10.667,4.781,10.667,10.667     C320,485.885,315.219,490.667,309.333,490.667z"/>
			<path d="M163.125,419.125l-32.082,32.082c-4.172-1.996-8.784-3.207-13.71-3.207c-17.646,0-32,14.354-32,32     c0,17.646,14.354,32,32,32c17.646,0,32-14.354,32-32c0-4.926-1.211-9.538-3.207-13.71l32.082-32.082     c4.167-4.167,4.167-10.917,0-15.083C174.042,414.958,167.292,414.958,163.125,419.125z M117.333,490.667     c-5.885,0-10.667-4.781-10.667-10.667c0-5.885,4.781-10.667,10.667-10.667c5.885,0,10.667,4.781,10.667,10.667     C128,485.885,123.219,490.667,117.333,490.667z"/>
		</g>
	</g>
</g>
<g>
</g>
<g>
</g>
<g>
</g>
<g>
</g>
<g>
</g>
<g>
</g>
<g>
</g>
<g>
</g>
<g>
</g>
<g>
</g>
<g>
</g>
<g>
</g>
<g>
</g>
<g>
</g>
<g>
</g>
</svg>
