<?xml version="1.0" encoding="iso-8859-1"?>
<!-- Generator: Adobe Illustrator 19.0.0, SVG Export Plug-In . SVG Version: 6.00 Build 0)  -->
<svg xmlns="http://www.w3.org/2000/svg" xmlns:xlink="http://www.w3.org/1999/xlink" version="1.1" id="Layer_1" x="0px" y="0px" viewBox="0 0 512 512" style="enable-background:new 0 0 512 512;" xml:space="preserve">
<g>
	<g>
		<g>
			<path d="M501.333,245.333H447.46c-2.484-44.888-20.374-85.634-48.572-117.129l38.133-38.142c4.167-4.167,4.167-10.917,0-15.083     c-4.167-4.167-10.917-4.167-15.083,0l-38.133,38.141c-31.493-28.202-72.243-46.095-117.138-48.579V10.667     C266.667,4.771,261.896,0,256,0s-10.667,4.771-10.667,10.667V64.52c-44.805,2.478-85.65,20.293-117.214,48.525L90.063,74.979     c-4.167-4.167-10.917-4.167-15.083,0c-4.167,4.167-4.167,10.917,0,15.083l37.978,37.986     c-25.781,28.775-42.867,65.439-47.488,106.061c-7.678-1.164-12.47-4.309-18.052-8.193c-8.063-5.604-18.083-12.583-36.75-12.583     C4.771,213.333,0,218.104,0,224s4.771,10.667,10.667,10.667c11.979,0,17.521,3.865,24.542,8.76     C43.271,249.031,53.271,256,71.938,256c18.688,0,28.708-6.969,36.75-12.573c7.042-4.896,12.604-8.76,24.583-8.76     c12,0,17.563,3.865,24.604,8.76c8.042,5.604,18.083,12.573,36.75,12.573c18.688,0,28.708-6.969,36.771-12.573     c7.042-4.896,12.604-8.76,24.604-8.76c5.896,0,10.667-4.771,10.667-10.667s-4.771-10.667-10.667-10.667     c-18.688,0-28.708,6.969-36.771,12.573c-7.042,4.896-12.604,8.76-24.604,8.76c-11.979,0-17.542-3.865-24.583-8.75     c-8.042-5.604-18.083-12.583-36.771-12.583s-28.708,6.969-36.75,12.573c-3.161,2.198-6.076,4.121-9.354,5.647     C99.081,148.495,170.569,85.333,256,85.333c94.104,0,170.667,76.563,170.667,170.667S350.104,426.667,256,426.667     c5.896,0,10.667-4.771,10.667-10.667c0-5.896-4.771-10.667-10.667-10.667c-18.688,0-28.708,6.969-36.771,12.573     c-7.042,4.896-12.604,8.76-24.604,8.76c-11.979,0-17.542-3.865-24.583-8.75c-8.042-5.604-18.083-12.583-36.771-12.583     s-28.708,6.969-36.75,12.573c-7.042,4.896-12.604,8.76-24.583,8.76c-11.958,0-17.5-3.865-24.521-8.75     c-8.063-5.604-18.083-12.583-36.75-12.583C4.771,405.333,0,410.104,0,416c0,5.896,4.771,10.667,10.667,10.667     c11.979,0,17.521,3.865,24.542,8.76C43.271,441.031,53.271,448,71.938,448c18.688,0,28.708-6.969,36.75-12.573     c7.042-4.896,12.604-8.76,24.583-8.76c12,0,17.563,3.865,24.604,8.76c8.042,5.604,18.083,12.573,36.75,12.573     c9.318,0,16.474-1.736,22.315-4.168c9.331,1.93,18.824,3.042,28.393,3.57v53.931c0,5.896,4.771,10.667,10.667,10.667     s10.667-4.771,10.667-10.667V447.46c44.895-2.484,85.645-20.378,117.138-48.579l38.133,38.141     c2.083,2.083,4.813,3.125,7.542,3.125s5.458-1.042,7.542-3.125c4.167-4.167,4.167-10.917,0-15.083l-38.133-38.142     c28.198-31.495,46.087-72.241,48.572-117.129h53.874c5.896,0,10.667-4.771,10.667-10.667S507.229,245.333,501.333,245.333z"/>
			<path d="M10.667,362.667c11.979,0,17.521,3.865,24.542,8.76C43.271,377.031,53.271,384,71.938,384     c5.896,0,10.667-4.771,10.667-10.667c0-5.896-4.771-10.667-10.667-10.667c-11.958,0-17.5-3.865-24.521-8.75     c-8.063-5.604-18.083-12.583-36.75-12.583C4.771,341.333,0,346.104,0,352C0,357.896,4.771,362.667,10.667,362.667z"/>
			<path d="M133.271,341.333c-5.896,0-10.667,4.771-10.667,10.667c0,5.896,4.771,10.667,10.667,10.667     c12,0,17.563,3.865,24.604,8.76c8.042,5.604,18.083,12.573,36.75,12.573c18.688,0,28.708-6.969,36.771-12.573     c7.042-4.896,12.604-8.76,24.604-8.76c12.208,0,18.396,3.969,26.25,8.99C291.292,377.438,301.563,384,320,384     c5.896,0,10.667-4.771,10.667-10.667c0-5.896-4.771-10.667-10.667-10.667c-12.208,0-18.396-3.969-26.25-8.99     c-9.042-5.781-19.313-12.344-37.75-12.344c-18.688,0-28.708,6.969-36.771,12.573c-7.042,4.896-12.604,8.76-24.604,8.76     c-11.979,0-17.542-3.865-24.583-8.75C162,348.313,151.958,341.333,133.271,341.333z"/>
			<path d="M133.271,277.333c-18.688,0-28.708,6.969-36.75,12.573c-7.042,4.896-12.604,8.76-24.583,8.76     c-11.958,0-17.5-3.865-24.521-8.75c-8.063-5.604-18.083-12.583-36.75-12.583C4.771,277.333,0,282.104,0,288     s4.771,10.667,10.667,10.667c11.979,0,17.521,3.865,24.542,8.76C43.271,313.031,53.271,320,71.938,320     c18.688,0,28.708-6.969,36.75-12.573c7.042-4.896,12.604-8.76,24.583-8.76c5.896,0,10.667-4.771,10.667-10.667     S139.167,277.333,133.271,277.333z"/>
			<path d="M231.396,307.427c7.042-4.896,12.604-8.76,24.604-8.76c11.979,0,17.521,3.865,24.542,8.76     c8.063,5.604,18.063,12.573,36.729,12.573c18.688,0,28.708-6.969,36.75-12.573c7.042-4.896,12.604-8.76,24.583-8.76     c5.896,0,10.667-4.771,10.667-10.667s-4.771-10.667-10.667-10.667c-18.688,0-28.708,6.969-36.75,12.573     c-7.042,4.896-12.604,8.76-24.583,8.76c-11.958,0-17.5-3.865-24.521-8.75c-8.063-5.604-18.083-12.583-36.75-12.583     c-18.688,0-28.708,6.969-36.771,12.573c-7.042,4.896-12.604,8.76-24.604,8.76c-5.896,0-10.667,4.771-10.667,10.667     c0,5.896,4.771,10.667,10.667,10.667C213.313,320,223.333,313.031,231.396,307.427z"/>
		</g>
	</g>
</g>
<g>
</g>
<g>
</g>
<g>
</g>
<g>
</g>
<g>
</g>
<g>
</g>
<g>
</g>
<g>
</g>
<g>
</g>
<g>
</g>
<g>
</g>
<g>
</g>
<g>
</g>
<g>
</g>
<g>
</g>
</svg>
