<?xml version="1.0" encoding="iso-8859-1"?>
<!-- Generator: Adobe Illustrator 19.0.0, SVG Export Plug-In . SVG Version: 6.00 Build 0)  -->
<svg xmlns="http://www.w3.org/2000/svg" xmlns:xlink="http://www.w3.org/1999/xlink" version="1.1" id="Layer_1" x="0px" y="0px" viewBox="0 0 512 512" style="enable-background:new 0 0 512 512;" xml:space="preserve">
<g>
	<g>
		<g>
			<path d="M415.49,225.906c-8.052-5.604-18.073-12.573-36.75-12.573c-18.688,0-28.719,6.969-36.781,12.573     c-7.031,4.896-12.594,8.76-24.594,8.76c-11.99,0-17.552-3.865-24.583-8.76c-8.063-5.604-18.094-12.573-36.781-12.573     c-5.896,0-10.667,4.771-10.667,10.667s4.771,10.667,10.667,10.667c12,0,17.563,3.865,24.594,8.76     c8.063,5.604,18.094,12.573,36.771,12.573c18.688,0,28.719-6.969,36.771-12.573c7.042-4.896,12.604-8.76,24.604-8.76     c11.979,0,17.531,3.865,24.563,8.75c8.052,5.604,18.083,12.583,36.76,12.583c18.667,0,28.688-6.979,36.729-12.583     c7.021-4.885,12.573-8.75,24.542-8.75c5.896,0,10.667-4.771,10.667-10.667s-4.771-10.667-10.667-10.667     c-18.667,0-28.688,6.979-36.729,12.583c-7.021,4.885-12.573,8.75-24.542,8.75C428.073,234.667,422.521,230.802,415.49,225.906z"/>
			<path d="M501.333,405.333c-18.667,0-28.688,6.979-36.729,12.583c-7.021,4.885-12.573,8.75-24.542,8.75     c-11.99,0-17.542-3.865-24.573-8.76c-8.052-5.604-18.073-12.573-36.75-12.573c-18.688,0-28.719,6.969-36.781,12.573     c-7.031,4.896-12.594,8.76-24.594,8.76c-11.99,0-17.552-3.865-24.583-8.76c-8.063-5.604-18.094-12.573-36.781-12.573     c-5.896,0-10.667,4.771-10.667,10.667c0,5.896,4.771,10.667,10.667,10.667c12,0,17.563,3.865,24.594,8.76     c8.063,5.604,18.094,12.573,36.771,12.573c18.688,0,28.719-6.969,36.771-12.573c7.042-4.896,12.604-8.76,24.604-8.76     c11.979,0,17.531,3.865,24.563,8.75c8.052,5.604,18.083,12.583,36.76,12.583c18.667,0,28.688-6.979,36.729-12.583     c7.021-4.885,12.573-8.75,24.542-8.75c5.896,0,10.667-4.771,10.667-10.667C512,410.104,507.229,405.333,501.333,405.333z"/>
			<path d="M501.333,341.333c-18.667,0-28.688,6.979-36.729,12.583c-7.021,4.885-12.573,8.75-24.542,8.75     c-5.896,0-10.667,4.771-10.667,10.667c0,5.896,4.771,10.667,10.667,10.667c18.667,0,28.688-6.979,36.729-12.583     c7.021-4.885,12.573-8.75,24.542-8.75c5.896,0,10.667-4.771,10.667-10.667C512,346.104,507.229,341.333,501.333,341.333z"/>
			<path d="M280.594,371.427c8.063,5.604,18.094,12.573,36.771,12.573c18.688,0,28.719-6.969,36.781-12.573     c7.031-4.896,12.594-8.76,24.594-8.76c5.896,0,10.667-4.771,10.667-10.667c0-5.896-4.771-10.667-10.667-10.667     c-18.688,0-28.719,6.969-36.771,12.573c-7.042,4.896-12.604,8.76-24.604,8.76c-11.99,0-17.552-3.865-24.583-8.76     c-8.063-5.604-18.094-12.573-36.781-12.573c-18.438,0-28.698,6.563-37.75,12.344c-7.844,5.021-14.052,8.99-26.25,8.99     c-5.896,0-10.667,4.771-10.667,10.667c0,5.896,4.771,10.667,10.667,10.667c18.438,0,28.698-6.563,37.75-12.344     c7.844-5.021,14.052-8.99,26.25-8.99C268,362.667,273.563,366.531,280.594,371.427z"/>
			<path d="M501.333,277.333c-18.667,0-28.688,6.979-36.729,12.583c-7.021,4.885-12.573,8.75-24.542,8.75     c-11.99,0-17.542-3.865-24.573-8.76c-8.052-5.604-18.073-12.573-36.75-12.573c-5.896,0-10.667,4.771-10.667,10.667     s4.771,10.667,10.667,10.667c11.979,0,17.531,3.865,24.563,8.75c8.052,5.604,18.083,12.583,36.76,12.583     c18.667,0,28.688-6.979,36.729-12.583c7.021-4.885,12.573-8.75,24.542-8.75c5.896,0,10.667-4.771,10.667-10.667     S507.229,277.333,501.333,277.333z"/>
			<path d="M155.25,384H96c-41.167,0-74.667-33.5-74.667-74.667c0-34.299,23.197-64.078,56.41-72.424l0.017-0.003     c5.906-1.49,12.042-2.24,18.24-2.24c5.896,0,10.667-4.771,10.667-10.667S101.896,213.333,96,213.333     c-3.014,0-6.003,0.272-8.988,0.549c9.897-73.044,72.366-128.549,147.655-128.549c63.396,0,119.917,39.99,140.635,99.51     c0.608,1.746,1.712,3.112,2.992,4.273c2.134,2.378,5.184,3.878,8.685,3.56l3.167-0.323c18.406-2,37.615,3.76,54.292,13.969     c1.74,1.063,3.656,1.563,5.552,1.563c3.594,0,7.104-1.813,9.115-5.104c3.073-5.021,1.49-11.594-3.542-14.667     c-19.306-11.813-41.536-18.141-63.065-17.005C366.927,106.871,304.647,64,234.667,64c-88.615,0-161.792,67.271-169.729,154.469     C26.333,231.604,0,267.906,0,309.333c0,52.938,43.063,96,96,96h59.25c5.896,0,10.667-4.771,10.667-10.667S161.146,384,155.25,384     z"/>
		</g>
	</g>
</g>
<g>
</g>
<g>
</g>
<g>
</g>
<g>
</g>
<g>
</g>
<g>
</g>
<g>
</g>
<g>
</g>
<g>
</g>
<g>
</g>
<g>
</g>
<g>
</g>
<g>
</g>
<g>
</g>
<g>
</g>
</svg>
